<svg xmlns="http://www.w3.org/2000/svg" viewBox="0 0 499 498.67"><defs><style>.cls-1,.cls-2{font-size:107.18px;font-family:Junudullah-Zam-S_A_U, Junudullah Zam S_A_U;}.cls-2,.cls-4{fill:none;stroke:#000;}.cls-3,.cls-4{font-size:74.01px;font-family:FNSuhridBornobilasBijoy52, FN Suhrid Bornobilas Bijoy52;}.cls-4{stroke-width:3px;}.cls-5{fill:red;}.cls-6{fill:#fff;}</style></defs><title>Asset 2</title><g id="Layer_2" data-name="Layer 2"><g id="Layer_1-2" data-name="Layer 1"><text class="cls-1" transform="translate(76.62 432.69)">ঈদ এর পর</text><text class="cls-2" transform="translate(76.62 432.69)">ঈদ এর পর</text><text class="cls-3" transform="translate(65.02 270.7)">Am‡Q...</text><text class="cls-4" transform="translate(65.02 270.7)">Am‡Q...</text><g id="Layer_2-2" data-name="Layer 2"><g id="Layer_1-2-2" data-name="Layer 1-2"><path class="cls-5" d="M86.27,24.56l0,0h-45l.75.77.52.53.42.38a2.7,2.7,0,0,0,.39.27,2.44,2.44,0,0,0,.7.73,3,3,0,0,0,.79.36,2.1,2.1,0,0,0,.42.09l.42.05.39,0,.39,0a3.77,3.77,0,0,1,.58.14,1.14,1.14,0,0,1,.53.36,2.23,2.23,0,0,1,.42.75,5.94,5.94,0,0,1,.26,1.32c-.09.13-.22.31-.42.57s-.36.52-.57.8-.42.54-.64.78-.39.36-.54.36a.47.47,0,0,1-.3-.18,2.55,2.55,0,0,1-.31-.47,3.53,3.53,0,0,1-.28-.7A3.77,3.77,0,0,1,45,30.7l-1.45,1.44c.15.27.28.51.37.72s.2.38.28.55a5.24,5.24,0,0,0,.3.51,5.36,5.36,0,0,0,.34.49,3.05,3.05,0,0,0,.87.77,2.5,2.5,0,0,0,1.26.3,1.54,1.54,0,0,0,.76-.2,2.94,2.94,0,0,0,.67-.54A5.08,5.08,0,0,0,49,34c.19-.27.37-.56.55-.84l.25-.42c.09-.14.18-.26.25-.39s.16-.24.25-.35l.25-.32a1.39,1.39,0,0,1,1-.61,1,1,0,0,1,.47.13,3.2,3.2,0,0,1,.53.34A2.09,2.09,0,0,1,53,32a.74.74,0,0,1,.18.39v6.43a11.06,11.06,0,0,0,.83.84,7.12,7.12,0,0,0,.64.58.94.94,0,0,0,.42.25v-14h4.41a13.91,13.91,0,0,0-1.78,3.05,8.85,8.85,0,0,0-.56,4.94A10.45,10.45,0,0,0,57.51,36a8,8,0,0,0,.65,1.47,6,6,0,0,0,.92,1.26,4.43,4.43,0,0,0,1.23.87,3.55,3.55,0,0,0,1.54.32,2.76,2.76,0,0,0,1-.18,2.81,2.81,0,0,0,.84-.52,2.41,2.41,0,0,0,.59-.79,2.34,2.34,0,0,0,.22-1,2.11,2.11,0,0,0-.14-.74A2.53,2.53,0,0,0,64,36a2.34,2.34,0,0,0-.59-.5,1.5,1.5,0,0,0-.75-.2,1.91,1.91,0,0,0-.67.14,1.87,1.87,0,0,0-.61.39,1.82,1.82,0,0,0-.45.58,1.57,1.57,0,0,0-.17.7,1.75,1.75,0,0,0,.14.64,3.55,3.55,0,0,0,.32.61,1.7,1.7,0,0,1-.87-.54,4.31,4.31,0,0,1-.68-1,5,5,0,0,1-.42-1.2,5,5,0,0,1-.15-1.15,14.73,14.73,0,0,1,.2-2.48,7.42,7.42,0,0,1,.7-2.1,5.88,5.88,0,0,1,1.33-1.68,7.55,7.55,0,0,1,2-1.26c.35-.12.71-.23,1.08-.32a1.37,1.37,0,0,0,.28-.05c.21.72.45,1.5.72,2.36s.63,1.78,1,2.69a23.93,23.93,0,0,0,1.32,2.63,12.53,12.53,0,0,0,1.64,2.26,7.78,7.78,0,0,0,2,1.59,5,5,0,0,0,2.38.6,5.23,5.23,0,0,0,4.76-3,5.81,5.81,0,0,0,.53-2A6.41,6.41,0,0,0,78.68,31a6,6,0,0,0-1.26-2.1,5.85,5.85,0,0,0-4.21-1.82,3.55,3.55,0,0,0-1.25.23,3.43,3.43,0,0,0-1.1.63,3.47,3.47,0,0,0-.78,1,2.67,2.67,0,0,0-.3,1.3,3.57,3.57,0,0,0,.16,1.12,2.48,2.48,0,0,0,.47.93,2.33,2.33,0,0,0,.8.63,2.49,2.49,0,0,0,1.11.23A2.58,2.58,0,0,0,74,32.64a2.07,2.07,0,0,0,.66-1.72,3.82,3.82,0,0,0-.06-.68,2.22,2.22,0,0,0-.26-.66l.21,0h.2a1.81,1.81,0,0,1,.93.28,3.37,3.37,0,0,1,.84.71,3.27,3.27,0,0,1,.59,1,2.76,2.76,0,0,1,.17,1.17,3,3,0,0,1-.4,1.19,3.82,3.82,0,0,1-.84,1,4.38,4.38,0,0,1-1.09.69,3,3,0,0,1-1.17.27,4.43,4.43,0,0,1-1.89-.4,6,6,0,0,1-1.6-1.07,10.15,10.15,0,0,1-1.36-1.57A15.25,15.25,0,0,1,67.79,31c-.34-.66-.65-1.31-.94-2s-.55-1.3-.79-1.9l-1.26-.54a4.91,4.91,0,0,1,.86-.07H82.72l-.23.31c-.08.1-.15.21-.23.32l-.34.53c-.1.17-.2.35-.29.53a6.5,6.5,0,0,0-.47,1.17A5.77,5.77,0,0,0,81,30.79a6.89,6.89,0,0,0,.16,1.43c.11.47.23.93.37,1.37,0,.24.11.47.16.69s.11.44.15.66.08.42.11.65a4.62,4.62,0,0,1,0,.65,5.46,5.46,0,0,1-.07.9,2,2,0,0,1-.24.68,2.37,2.37,0,0,1-.44.56,5,5,0,0,1-.65.57l-.23.1-.21.05a.79.79,0,0,0-.22.06,1.83,1.83,0,0,0-.53.29.47.47,0,0,0-.21.36.76.76,0,0,0,.3.64.94.94,0,0,0,.62.24,2.88,2.88,0,0,0,1.46-.42,5.92,5.92,0,0,0,1.34-1.1,6.07,6.07,0,0,0,1-1.54A3.88,3.88,0,0,0,84.32,36a11.92,11.92,0,0,0-.14-1.8c-.09-.6-.2-1.19-.31-1.78s-.23-1.16-.32-1.73a11.34,11.34,0,0,1-.14-1.74,2.87,2.87,0,0,1,.51-1.82,2,2,0,0,1,1.68-.64H86l0,0h8v.39a21.7,21.7,0,0,0-4.08,1.77A38.54,38.54,0,0,0,86,31.19L88,34a6.64,6.64,0,0,1,2.89.75,6.9,6.9,0,0,1,2.46,2.34c.19.31.37.6.53.89s.32.58.46.84.27.52.41.76a3.8,3.8,0,0,0,.42.47,1.3,1.3,0,0,0,.23.18l.57.33v-14h3.28l-1.93-2ZM53.18,30.17c-.18-.25-.39-.51-.63-.79a5.66,5.66,0,0,0-.77-.7,1.5,1.5,0,0,0-.9-.32,1.43,1.43,0,0,0-.64.15,4.06,4.06,0,0,0-.63.38,2.7,2.7,0,0,0-.38-1.33,4.29,4.29,0,0,0-.91-1.08h4.86ZM94,35.57a9.56,9.56,0,0,0-1.88-2.18,10.73,10.73,0,0,0-2.44-1.55A19,19,0,0,1,94,29.52Z"/><path class="cls-5" d="M90.39,35.82a1.48,1.48,0,0,0-1.1.48A1.64,1.64,0,0,0,89,38.12a2,2,0,0,0,.38.57,1.87,1.87,0,0,0,.55.38,1.66,1.66,0,0,0,.66.14,1.41,1.41,0,0,0,1.1-.52,1.79,1.79,0,0,0,.42-1.15,1.68,1.68,0,0,0-.52-1.21A1.7,1.7,0,0,0,90.39,35.82Z"/><path class="cls-5" d="M144.67,24.53H134.9l-.27-.27a1.2,1.2,0,0,1-.18-.26.81.81,0,0,1-.11-.27,2.54,2.54,0,0,1-.09-.54l-1.16-1c0,.5.09.93.14,1.3s.08.7.11,1,.06.51.09.71.06.39.09.56a2.76,2.76,0,0,0-.91-.95,2.35,2.35,0,0,0-1-.29H130.4l-.64,0,0,0H102.13l.74.76.52.54c.15.13.3.26.42.38a3,3,0,0,0,.42.27,2.3,2.3,0,0,0,.69.7,2.83,2.83,0,0,0,.79.36,2.1,2.1,0,0,0,.42.09l.42.05.38,0,.39,0a3.77,3.77,0,0,1,.58.14,1.17,1.17,0,0,1,.54.36,2.41,2.41,0,0,1,.42.75,6.56,6.56,0,0,1,.26,1.32c-.09.13-.23.31-.4.57s-.36.52-.58.8-.42.54-.63.78-.39.36-.54.36a.45.45,0,0,1-.3-.18,2.13,2.13,0,0,1-.31-.47,4.3,4.3,0,0,1-.29-.7,3.75,3.75,0,0,1-.16-.81l-1.45,1.44c.15.27.27.51.37.72l.28.55c.1.18.19.34.3.51a3.36,3.36,0,0,0,.35.49,3,3,0,0,0,.86.77,2.42,2.42,0,0,0,1.26.3,1.53,1.53,0,0,0,.76-.19,3.23,3.23,0,0,0,.68-.54,6.26,6.26,0,0,0,.6-.76c.19-.27.37-.56.56-.84s.15-.27.24-.42a3.6,3.6,0,0,0,.25-.39c.08-.12.16-.24.25-.35a3.49,3.49,0,0,0,.25-.32,1.4,1.4,0,0,1,1-.61,1,1,0,0,1,.47.13,3.77,3.77,0,0,1,.54.34,2.09,2.09,0,0,1,.42.42.71.71,0,0,1,.16.39v6.43c.31.32.58.61.84.84s.41.4.63.58a1,1,0,0,0,.42.25v-14h8.53v2.6c-.22-.3-.46-.59-.71-.87a5.71,5.71,0,0,0-.84-.72,3.89,3.89,0,0,0-2.27-.69,3,3,0,0,0-1.21.25,2.44,2.44,0,0,0-.89.67,2.9,2.9,0,0,0-.56,1,3.83,3.83,0,0,0-.19,1.21,1.63,1.63,0,0,0,.18.75,2,2,0,0,0,.46.55,2,2,0,0,0,.63.36,1.7,1.7,0,0,0,.67.13,1.73,1.73,0,0,0,.64-.12,1.86,1.86,0,0,0,.58-.33,2,2,0,0,0,.42-.53,1.38,1.38,0,0,0,.16-.67.88.88,0,0,0-.07-.32l-.16-.35a.48.48,0,0,1-.13-.23.09.09,0,0,1,0-.07c0-.08.07-.1.23-.06a1.91,1.91,0,0,0,.33.06,2.31,2.31,0,0,1,1.29.42,2.79,2.79,0,0,1,.95,1c-.8.5-1.61,1-2.44,1.49s-1.69,1.05-2.58,1.67l1.54,2.1a4.33,4.33,0,0,1,1.74.31,4.6,4.6,0,0,1,2.39,2.37,6.34,6.34,0,0,1,.49,1.75c.18.14.35.26.52.37a3,3,0,0,0,.42.26.76.76,0,0,0,.33.11V32.21c.25-.13.51-.26.82-.4a4,4,0,0,1,.84-.28v6.52a.91.91,0,0,0,.23.54,6.47,6.47,0,0,0,.61.67c.25.23.52.45.82.68s.55.39.84.57a16.36,16.36,0,0,1-.5-2.85C130,36.82,130,36,130,35.27s0-1.65.05-2.44.1-1.6.18-2.43a1,1,0,0,0-.16-.62,1.62,1.62,0,0,0-.48-.42,2.62,2.62,0,0,0-.62-.26,2.08,2.08,0,0,0-.6-.09,3.27,3.27,0,0,0-1.25.23l-.34.14-.34.16V26.48h4.94v0a1.33,1.33,0,0,1,1.46.5,3.56,3.56,0,0,1,.4,1.86V39.23c.28.3.56.56.81.79s.42.37.64.54a.88.88,0,0,0,.45.25V26.48H140a14.31,14.31,0,0,0-1.78,3.05,9.15,9.15,0,0,0-.56,4.94A10.45,10.45,0,0,0,138,36a8,8,0,0,0,.65,1.47,6,6,0,0,0,.92,1.26,4.43,4.43,0,0,0,1.23.87,3.55,3.55,0,0,0,1.54.32,2.76,2.76,0,0,0,1-.18,2.81,2.81,0,0,0,.84-.52,2.41,2.41,0,0,0,.59-.79,2.34,2.34,0,0,0,.22-1,2.11,2.11,0,0,0-.14-.74,2.53,2.53,0,0,0-.4-.67,2.14,2.14,0,0,0-.58-.5,1.53,1.53,0,0,0-.75-.2,1.92,1.92,0,0,0-.68.14,1.87,1.87,0,0,0-.61.39,1.66,1.66,0,0,0-.44.58,1.45,1.45,0,0,0-.17.7,1.74,1.74,0,0,0,.13.64,4.42,4.42,0,0,0,.32.61,1.7,1.7,0,0,1-.87-.54,4.31,4.31,0,0,1-.68-1,5,5,0,0,1-.42-1.2,5,5,0,0,1-.15-1.15,14.73,14.73,0,0,1,.2-2.48,7.44,7.44,0,0,1,.71-2.1,5.68,5.68,0,0,1,1.32-1.68,7.45,7.45,0,0,1,2.05-1.26,11.14,11.14,0,0,1,1.07-.32,5.35,5.35,0,0,1,1.26-.14h7.51v5.8a11.83,11.83,0,0,0-.82-1.26,7.16,7.16,0,0,0-1-1.13,4.5,4.5,0,0,0-1.24-.79,3.73,3.73,0,0,0-2.83-.06,3.52,3.52,0,0,0-1.13.68,3.18,3.18,0,0,0-1.05,2.43,2.92,2.92,0,0,0,.74,2.15,2.79,2.79,0,0,0,2.1.75,2.31,2.31,0,0,0,1.47-.49,1.75,1.75,0,0,0,.64-1.48,2.63,2.63,0,0,0-.3-1.23,1.15,1.15,0,0,0-.12-.25,2.33,2.33,0,0,0-.17-.26l0-.05a.21.21,0,0,1,0-.06,2.46,2.46,0,0,1,1.3.48,4.89,4.89,0,0,1,1.13,1.14,9.4,9.4,0,0,1,.92,1.56,17.41,17.41,0,0,1,.7,1.76,11.86,11.86,0,0,1,.44,1.73,9.29,9.29,0,0,1,.15,1.49v.18a1.26,1.26,0,0,1-.05.28l1.09,1.46V26.48h3.36l-2-1.95Zm-30.58,5.64c-.18-.25-.39-.51-.63-.79a5.12,5.12,0,0,0-.77-.7,1.4,1.4,0,0,0-1.54-.17,4.06,4.06,0,0,0-.63.38,2.7,2.7,0,0,0-.38-1.33,4.29,4.29,0,0,0-.91-1.08h4.86Zm10.43,5.95a9.22,9.22,0,0,0-2.1-1.78c.35-.22.7-.42,1-.66s.71-.42,1.07-.64Z"/><path class="cls-5" d="M184.74,31.62a25.76,25.76,0,0,0,1.31,2.63,13,13,0,0,0,1.63,2.26,7.78,7.78,0,0,0,2,1.59,4.84,4.84,0,0,0,2.38.6,5.24,5.24,0,0,0,4.74-3,5.6,5.6,0,0,0,.53-2A6.39,6.39,0,0,0,197,31a5.92,5.92,0,0,0-1.26-2.1,5.72,5.72,0,0,0-1.92-1.35,5.79,5.79,0,0,0-2.29-.47,3.63,3.63,0,0,0-1.26.22A3.46,3.46,0,0,0,188.38,29a2.79,2.79,0,0,0-.3,1.3,3.89,3.89,0,0,0,.16,1.12,2.5,2.5,0,0,0,.48.93,2.37,2.37,0,0,0,.81.63,2.46,2.46,0,0,0,1.11.23,2.58,2.58,0,0,0,1.67-.53,2.07,2.07,0,0,0,.66-1.72,3.25,3.25,0,0,0-.05-.7,2.1,2.1,0,0,0-.25-.66l.21,0h.2a1.81,1.81,0,0,1,.93.28,3.56,3.56,0,0,1,.84.71,3.45,3.45,0,0,1,.58,1,2.73,2.73,0,0,1,.17,1.17,3,3,0,0,1-.39,1.19,4.25,4.25,0,0,1-.84,1,4.63,4.63,0,0,1-1.1.69,3,3,0,0,1-1.17.27,4.58,4.58,0,0,1-1.89-.4,5.78,5.78,0,0,1-1.6-1.08,9.63,9.63,0,0,1-1.36-1.56A14.63,14.63,0,0,1,186.12,31c-.34-.65-.65-1.3-.94-2s-.55-1.3-.79-1.9L183,26.48c.21.74.46,1.56.75,2.45S184.36,30.71,184.74,31.62Z"/><path class="cls-5" d="M227.14,24.55h-1a4.46,4.46,0,0,1-.61-.53,2,2,0,0,1-.3-.42c-.05-.09-.09-.17-.13-.26l-.18-.3a1.56,1.56,0,0,1-.12-.17,2.35,2.35,0,0,0-.19-.25l-.32-.35c-.12-.15-.29-.33-.48-.55v1.07c0,.4,0,.81.05,1.23s0,.84.06,1.23,0,.74.07,1l.09,1.21a7.72,7.72,0,0,0-.64-1.12,5.89,5.89,0,0,0-.84-.95,3.88,3.88,0,0,0-1-.67,3,3,0,0,0-1.26-.26,4.42,4.42,0,0,0-1.89.39,4,4,0,0,0-1.39,1h0l-1.33-1.38H180.55a1.47,1.47,0,0,1-.1-.22,1.28,1.28,0,0,0-.11-.24,1.69,1.69,0,0,0-.13-.31.45.45,0,0,1-.07-.18,2.65,2.65,0,0,1,.12-.37,3.69,3.69,0,0,1,.42-.75,5.86,5.86,0,0,1,.76-.88,4,4,0,0,1,1.14-.76,4.9,4.9,0,0,1,1.6-.36,6.49,6.49,0,0,1,2.1.28,12.31,12.31,0,0,1,2.62,1.18,21.49,21.49,0,0,1,3.22,2.31l-.63-1.9a21.72,21.72,0,0,0-1.73-1.59,12.16,12.16,0,0,0-1.94-1.3,10.21,10.21,0,0,0-2.13-.89,8,8,0,0,0-2.32-.32,4.49,4.49,0,0,0-1.73.38,7.23,7.23,0,0,0-1.74,1,6,6,0,0,0-1.35,1.5,3.24,3.24,0,0,0-.54,1.78,1.42,1.42,0,0,0,.3.91,7.3,7.3,0,0,0,.65.71h-2.47a1.54,1.54,0,0,1-.5-.42,1.93,1.93,0,0,1-.15-.75l-.14-.26-1.22-.91v3.13c0,.46,0,.9,0,1.32s0,.84.07,1.26a8.38,8.38,0,0,0-.89-1.23,7.61,7.61,0,0,0-1.11-1,5.34,5.34,0,0,0-1.3-.67,4.5,4.5,0,0,0-1.45-.24,5.54,5.54,0,0,0-1.61.31,8.7,8.7,0,0,0-1.82.87,6,6,0,0,0-1.47,1.33,2.61,2.61,0,0,0-.62,1.64,1.36,1.36,0,0,0,.12.49,1.75,1.75,0,0,0,.29.47,1.5,1.5,0,0,0,.42.33,1.05,1.05,0,0,0,.49.13,1.36,1.36,0,0,0,.49-.12l.24-.09.24-.09a3,3,0,0,1,.42-.16,1.17,1.17,0,0,1,.37-.08.5.5,0,0,1,.33.12.75.75,0,0,1,.18.28,2.33,2.33,0,0,1,.08.36c0,.13,0,.25,0,.36a.8.8,0,0,1-.13.42c-.08.13-.18.29-.3.46a2.39,2.39,0,0,1-.23.22c-.07.07-.15.14-.22.22l-.26.27-.46.47,2.51,1,4.46-4.61a3.05,3.05,0,0,1,.38.49,5,5,0,0,1,.38.63,5.58,5.58,0,0,1,.28.67,1.63,1.63,0,0,1,.12.53v2.28c0,.43,0,.84,0,1.29s0,.79,0,1.21a3.79,3.79,0,0,0-.77-.56,6.88,6.88,0,0,0-1.63-.63,12.21,12.21,0,0,0-1.71-.29c-.58-.05-1.15-.09-1.73-.12a12.88,12.88,0,0,1-1.55-.19,3.85,3.85,0,0,1-1.19-.38,1.9,1.9,0,0,1-.78-.73,2.41,2.41,0,0,1-.3-1.23.73.73,0,0,1,0-.25,2,2,0,0,1,.14-.39l-1.26-1.3a14.64,14.64,0,0,0-.21,1.62c0,.42,0,.84,0,1.21a4.24,4.24,0,0,0,1.38,3.2,4.61,4.61,0,0,0,1.45.89,5,5,0,0,0,1.76.31,15.81,15.81,0,0,0,1.68-.06,15.93,15.93,0,0,1,1.7,0,7,7,0,0,1,1.38.1,2.13,2.13,0,0,1,.9.39,2.4,2.4,0,0,1,.62.69v.07l.15.15.6,1a1.43,1.43,0,0,0,.16.3c.08.13.15.26.22.39s.23.34.35.5a3.68,3.68,0,0,0,.65.6V39.62l-.09-.23V26.48h2.81V38.54a.32.32,0,0,0,0,.27.53.53,0,0,0,.11.14.16.16,0,0,0,.06.08l.08.09.22.21.25.25c.08.08.18.18.32.3l.38.37c.12.12.31.29.46.42V26.48h17.59l.49.05a3.65,3.65,0,0,1,.46.07c.58.14.87.42.88.81a1.56,1.56,0,0,0-1.26.75,2.59,2.59,0,0,0-.36,1.38,2.54,2.54,0,0,0,.12.78,2.11,2.11,0,0,0,.36.68,1.67,1.67,0,0,0,.56.5,1.48,1.48,0,0,0,.79.2,1.69,1.69,0,0,0,.7-.15,1.81,1.81,0,0,0,.6-.42,2,2,0,0,0,.42-.59,2,2,0,0,0,.22-.71,1.05,1.05,0,0,1,.72-.07,1.58,1.58,0,0,1,.68.38,1.88,1.88,0,0,1,.44.71,1.34,1.34,0,0,1,0,.84,2.4,2.4,0,0,0-.84.11,2.09,2.09,0,0,0-1.26,1.05,1.79,1.79,0,0,0-.21.91,2.08,2.08,0,0,0,.52,1.49,2,2,0,0,0,1.47.55,2.29,2.29,0,0,0,1.17-.3,2,2,0,0,0,.78-.91,3.81,3.81,0,0,1,1.47,1.35,11.68,11.68,0,0,1,1,1.85c.09.25.18.5.26.76s.17.52.26.8l.32.42.35.47c.13.18.27.38.44.59V30.34a4.58,4.58,0,0,1,.9-.09,3.94,3.94,0,0,1,1.66.3,1,1,0,0,1,.6,1,1.48,1.48,0,0,0-.78-.33,5,5,0,0,0-.78-.06.77.77,0,0,0-.48.16,1.47,1.47,0,0,0-.37.42,1.72,1.72,0,0,0-.25.53,1.4,1.4,0,0,0-.07.57,1.53,1.53,0,0,0,.54,1.13,2.72,2.72,0,0,0,1.77.48,1.84,1.84,0,0,0,.94-.25,1.93,1.93,0,0,0,.63-.61,2.94,2.94,0,0,0,.35-.84,3.67,3.67,0,0,0-.3-2.58,4.13,4.13,0,0,0-1.1-1.29,4.45,4.45,0,0,0-3.28-.87V26.5h6.48a5,5,0,0,0-.45,1,5.61,5.61,0,0,0-.31,1.9,4.57,4.57,0,0,0,.28,1.6,4.13,4.13,0,0,0,.79,1.34,3.85,3.85,0,0,0,1.22.93,3.49,3.49,0,0,0,1.59.35,3.36,3.36,0,0,0,.84-.14,3.3,3.3,0,0,0,.84-.42,2.34,2.34,0,0,0,.65-.68,1.79,1.79,0,0,0,.24-.93,2.18,2.18,0,0,0-.14-.76,2.37,2.37,0,0,0-.4-.64,2.21,2.21,0,0,0-.58-.42,1.94,1.94,0,0,0-.75-.16,2.1,2.1,0,0,0-1.07.29,1.13,1.13,0,0,0-.47,1.06v.53a.84.84,0,0,1-.35-.35,2.14,2.14,0,0,1-.23-.54,4,4,0,0,1-.11-.58,4.32,4.32,0,0,1,0-.5,2,2,0,0,1,.18-.84,2.46,2.46,0,0,1,.48-.75,2.55,2.55,0,0,1,.7-.52,1.88,1.88,0,0,1,.84-.19,2.43,2.43,0,0,1,1.26.36,3.94,3.94,0,0,1,1,.91,4.46,4.46,0,0,1,.7,1.26,4.21,4.21,0,0,1,.24,1.4l0,7.68a3.33,3.33,0,0,0,.25.28l.54.55a1.68,1.68,0,0,0,.24.29,1.64,1.64,0,0,1,.21.25.71.71,0,0,1,.14.1.54.54,0,0,0,.25-.06c.08,0,.08-.14,0-.29l.29.3V26.5H229ZM169.37,30a2.62,2.62,0,0,0-.59-1.26,1.82,1.82,0,0,0-1.12-.69,2.88,2.88,0,0,1,2.51-1.21,2.19,2.19,0,0,1,1.61.7Zm38.91,4.26a5.17,5.17,0,0,0-1.54-1.55,4.86,4.86,0,0,0-.84-2.52,7,7,0,0,0-1.6-1.61,5.56,5.56,0,0,0-.83-.53l-.74-.38a5.31,5.31,0,0,0-.52-.2h-.07A3.71,3.71,0,0,1,202,27c-.06-.16-.12-.32-.19-.47h2.55A4.37,4.37,0,0,0,204.8,28a5.08,5.08,0,0,0,.9,1.21,4.86,4.86,0,0,0,1.19.87,4.61,4.61,0,0,0,1.4.46Zm0-5.75-.25,0-.27-.05a3.61,3.61,0,0,1-.84-.28,1.68,1.68,0,0,1-.59-.47,1.34,1.34,0,0,1-.23-.84,1.21,1.21,0,0,0,0-.18c0-.08,0-.13,0-.13h2.17Z"/><path class="cls-5" d="M230.85,36.75a1.81,1.81,0,0,0-1.29.51,1.65,1.65,0,0,0-.55,1.3,1.93,1.93,0,0,0,.49,1.37,1.75,1.75,0,0,0,1.34.51A1.88,1.88,0,0,0,232.1,40a1.65,1.65,0,0,0,.56-1.3,1.92,1.92,0,0,0-.49-1.39A1.8,1.8,0,0,0,230.85,36.75Z"/><path class="cls-5" d="M237.18,36.75a1.79,1.79,0,0,0-1.28.51,1.65,1.65,0,0,0-.55,1.3,1.94,1.94,0,0,0,.5,1.37,1.79,1.79,0,0,0,1.35.51,1.91,1.91,0,0,0,1.26-.49,1.64,1.64,0,0,0,.55-1.3,1.91,1.91,0,0,0-.48-1.39A1.79,1.79,0,0,0,237.18,36.75Z"/><path class="cls-5" d="M244.86,37.26a1.75,1.75,0,0,0-1.34-.51,1.81,1.81,0,0,0-1.29.51,1.72,1.72,0,0,0-.55,1.3,1.93,1.93,0,0,0,.49,1.37,1.79,1.79,0,0,0,1.35.51A1.9,1.9,0,0,0,244.8,40a1.64,1.64,0,0,0,.55-1.3A1.92,1.92,0,0,0,244.86,37.26Z"/><path class="cls-5" d="M402.27,44.14,384.93,27.23q18.36-5.49,36.71-23.13l13.88,10.55Q416.3,38.21,402.27,44.14Z"/><path d="M122,44.06H28.89V13.33c0-2.63.6-3.94,1.81-3.94H74.22c1,.14,1.49,1,1.49,2.56v8.1h22V8.85Q97.68,0,87.87,0H18.65Q6.89,0,6.92,9.39V24.25h0V44.06H0v9.8H6.9v85.33h22V53.85H40.83V92.46l22,4.8V88.63q12-13.53,22.08-14.4-7.47,6.4-7.46,17.28a15.94,15.94,0,0,0,4.31,11.2q4.33,4.7,12.64,7.68l19.52-10.88Q99.39,98.45,99.39,90a13.64,13.64,0,0,1,4.85-10.4,19.64,19.64,0,0,1,6.45-3.57,28.24,28.24,0,0,1,9.39-1.39L105,60.81a13.77,13.77,0,0,0-4.37-2.61,16.58,16.58,0,0,0-5.76-.91q-17,0-32.11,12.59v-16h101v1.28Q153.57,63,129,69.24v30q0,9.6,11.84,11.2h44.9V67H187q10.25,0,10.24,7.56t-6.08,7.55h-.64V93.93h13.85q14.82,0,14.83-9.17V66.63q0-9-33.39-11.52V53.83H226.2V44.06Zm41.81,53.43q0,3.72-6.08,3.84c-4.48,0-6.71-1.6-6.71-4.8V73.06a71.72,71.72,0,0,0,12.8-5.76Z"/><path d="M246.47,53.86h7V92.47l22,4.8V88.63q11.94-13.53,22.08-14.4-7.49,6.4-7.47,17.28a16,16,0,0,0,4.32,11.2q4.32,4.7,12.64,7.68l19.51-10.88q-14.49-1.07-14.5-9.49a13.71,13.71,0,0,1,4.85-10.4,19.59,19.59,0,0,1,6.46-3.57,28.22,28.22,0,0,1,9.38-1.39l-15-13.85a13.59,13.59,0,0,0-4.37-2.61,16.58,16.58,0,0,0-5.76-.91q-16.95,0-32.1,12.59v-16H336.8v-9.8H246.47Z"/><path d="M391.63,52.37q-6-8.31-13.87-8.31h-27q-9.07,0-9.07,7.56V69.86q0,7.89,8.43,7.89h8.42q6,0,6,4.69v1.18l-22.83,7.55v16.11l49.94-16.43v19.52h22V53.86h7v-9.8h-29Zm0,23.68-5,1.26q-1.59-8.53-7.46-8.54H370c-4.19,0-6.29-1.13-6.29-3.41v-4q0-5.32,2.88-5.33,20.69,0,25.07,14.08Z"/><path d="M499,44.06h-7.1V24.25H469.36V48.89q-3.44-4.83-6.65-4.83H433.2q-7.67,0-7.66,10v30q.1,9.06,9.29,9.06h23.28V79.57h-6.55c-2.34,0-3.5-.89-3.5-2.67V63.79q0-5.76,10.6-5.76,5.35,0,8,2a6.62,6.62,0,0,1,2.62,5.6v44.79h.1v28.8h22.53V53.86H499Z"/><rect class="cls-5" x="41.22" y="115.22" width="416.57" height="23.97"/><path class="cls-6" d="M54.68,132.61l-6.84-10.85h5.57l4.05,7.1,3.72-7.1h5.5l3.6,7.1,4.13-7.1h5.64l-7,10.85H67.6l-3.71-7-3.66,7Z"/><path class="cls-6" d="M87.11,132.61l-6.85-10.84h5.57l4,7.11,3.7-7.12h5.51l3.6,7.1,4.13-7.1h5.65l-6.94,10.85H100l-3.72-7-3.66,7Z"/><path class="cls-6" d="M119.54,132.61l-6.85-10.84h5.57l4,7.11,3.72-7.11h5.5l3.6,7.09,4.14-7.1h5.63L138,132.61h-5.49l-3.72-7-3.66,7Z"/><path class="cls-6" d="M146.34,132.61v-2.85h5.75v2.85Z"/><path class="cls-6" d="M177.77,132.61h-5.29V131a9.42,9.42,0,0,1-3.12,1.39,14.39,14.39,0,0,1-3.63.46,12.68,12.68,0,0,1-6.38-1.51,4.69,4.69,0,0,1-.08-8.41,13,13,0,0,1,6.52-1.44A12.4,12.4,0,0,1,172,123v-5.36h5.73ZM162.58,127a3.11,3.11,0,0,0,.95,2.54,5.93,5.93,0,0,0,3.87,1.14,6.26,6.26,0,0,0,3.35-.84,2.79,2.79,0,0,0,1.38-2.55,2.94,2.94,0,0,0-1.34-2.72,7.42,7.42,0,0,0-6.83,0,2.65,2.65,0,0,0-1.38,2.41Z"/><path class="cls-6" d="M183.45,120.3v-2.64h5.74v2.64Zm0,12.3V121.76h5.74v10.85Z"/><path class="cls-6" d="M194.79,132.61V117.67h5.73v7.92l6.72-3.82h7l-7.37,3.94,7.91,6.9h-6.19l-5.45-4.89-2.65,1.42v3.47Z"/><path class="cls-6" d="M238,132.61h-5.29V131a9.51,9.51,0,0,1-3.12,1.39,14.41,14.41,0,0,1-3.64.46,12.62,12.62,0,0,1-6.37-1.51,4.69,4.69,0,0,1-.08-8.41,13,13,0,0,1,6.52-1.44,12.36,12.36,0,0,1,6.24,1.5v-5.36H238ZM222.84,127a3.13,3.13,0,0,0,.95,2.55,5.92,5.92,0,0,0,3.86,1.13,6.18,6.18,0,0,0,3.36-.84,2.77,2.77,0,0,0,1.38-2.54,3,3,0,0,0-1.34-2.73,6.52,6.52,0,0,0-3.43-.84,6.66,6.66,0,0,0-3.41.84A2.7,2.7,0,0,0,222.84,127Z"/><path class="cls-6" d="M247.89,125.06l-5.14-.49a5.3,5.3,0,0,1,3-2.32,20.51,20.51,0,0,1,6.38-.75,26.79,26.79,0,0,1,5.73.45,6.28,6.28,0,0,1,2.65,1.16,3.43,3.43,0,0,1,.76,2.57l-.09,3.36a5.76,5.76,0,0,0,.27,2.1,4.72,4.72,0,0,0,1,1.46h-5.66a9.33,9.33,0,0,1-.55-.84,3.62,3.62,0,0,0-.2-.33,13.94,13.94,0,0,1-3.15,1.07,17.15,17.15,0,0,1-3.57.35,12.74,12.74,0,0,1-5.29-.91c-1.28-.61-1.92-1.36-1.92-2.26A2.08,2.08,0,0,1,243,128a6.1,6.1,0,0,1,2.47-1.12,33.71,33.71,0,0,1,4.58-.67q4-.37,5.58-.71v-.29a1.21,1.21,0,0,0-.84-1.19,9.27,9.27,0,0,0-3.11-.35,7.59,7.59,0,0,0-2.42.3A2.79,2.79,0,0,0,247.89,125.06Zm7.77,2.32c-.74.12-1.9.27-3.5.45a18.52,18.52,0,0,0-3.14.51c-.75.27-1.13.61-1.13,1s.31.77.91,1.07a5.15,5.15,0,0,0,2.29.44,8.33,8.33,0,0,0,3-.52,2.57,2.57,0,0,0,1.38-1,3.16,3.16,0,0,0,.22-1.43Z"/><path class="cls-6" d="M272.36,132.61h-5.73V121.76h5.31v1.53a8.36,8.36,0,0,1,2.46-1.45,8,8,0,0,1,2.48-.35,13,13,0,0,1,3.77.54l-1.75,2.52a8.79,8.79,0,0,0-2.69-.47,5.41,5.41,0,0,0-2,.33,2.56,2.56,0,0,0-1.31,1.2,8.38,8.38,0,0,0-.51,3.65Z"/><path class="cls-6" d="M282.91,121.76h5.34v1.58a8.4,8.4,0,0,1,2.82-1.33,13.74,13.74,0,0,1,3.93-.52,12.81,12.81,0,0,1,6.4,1.48,4.58,4.58,0,0,1,2.63,4.15,4.67,4.67,0,0,1-2.64,4.23,12.87,12.87,0,0,1-6.43,1.52,13.58,13.58,0,0,1-3.24-.36,12.69,12.69,0,0,1-3.07-1.22v5.46h-5.74Zm5.64,5.21a3,3,0,0,0,1.44,2.74,6.6,6.6,0,0,0,3.52.89,6.09,6.09,0,0,0,3.31-.82,2.89,2.89,0,0,0,1.33-2.67,2.85,2.85,0,0,0-1.36-2.57,6.37,6.37,0,0,0-3.38-.84,6.69,6.69,0,0,0-3.48.84,2.68,2.68,0,0,0-1.38,2.43Z"/><path class="cls-6" d="M307.24,127a3.84,3.84,0,0,1,1.4-2.77,9.12,9.12,0,0,1,4-2.06,21.8,21.8,0,0,1,5.74-.7,17.6,17.6,0,0,1,8,1.6q3.14,1.6,3.12,4.06c0,1.64-1.05,3-3.15,4.09a17.43,17.43,0,0,1-8,1.63,23.34,23.34,0,0,1-5.64-.68,9.2,9.2,0,0,1-4.09-2A4.17,4.17,0,0,1,307.24,127Zm5.87.15a2.71,2.71,0,0,0,1.52,2.52,8.43,8.43,0,0,0,7.46,0,2.78,2.78,0,0,0,1.51-2.52,2.73,2.73,0,0,0-1.51-2.48,8.43,8.43,0,0,0-7.46,0,2.74,2.74,0,0,0-1.5,2.47Z"/><path class="cls-6" d="M353.64,132.61H347.9v-5.55a4.56,4.56,0,0,0-.36-2.27,2.26,2.26,0,0,0-1.19-.8,5.71,5.71,0,0,0-2-.29,8,8,0,0,0-2.65.42,3,3,0,0,0-1.61,1.08,5.13,5.13,0,0,0-.42,2.49v4.92h-5.76V121.76h5.3v1.58a12.7,12.7,0,0,1,7.13-1.85,16.14,16.14,0,0,1,3.47.34,7,7,0,0,1,2.37.88,3,3,0,0,1,1.12,1.2,4.73,4.73,0,0,1,.32,1.93Z"/><path class="cls-6" d="M359.46,132.61v-2.85h5.74v2.85Z"/><path class="cls-6" d="M390,124.88l-5.64.49a2.11,2.11,0,0,0-1.3-1.26,6.89,6.89,0,0,0-2.62-.42,6.65,6.65,0,0,0-3.42.76,2.69,2.69,0,0,0-1.26,2.51,3,3,0,0,0,1.29,2.78,7.88,7.88,0,0,0,6.15.36,2.75,2.75,0,0,0,1.47-1.63l5.64.48a5.77,5.77,0,0,1-3.36,2.94,18.68,18.68,0,0,1-6.69,1,16.2,16.2,0,0,1-7.57-1.51,4.51,4.51,0,0,1,0-8.37,16.51,16.51,0,0,1,7.67-1.5,19.2,19.2,0,0,1,6.3.84A6.12,6.12,0,0,1,390,124.88Z"/><path class="cls-6" d="M393,127a3.88,3.88,0,0,1,1.4-2.77,9.12,9.12,0,0,1,4-2.06,21.8,21.8,0,0,1,5.74-.7,17.53,17.53,0,0,1,8,1.6q3.14,1.6,3.13,4.07t-3.16,4.09a17.23,17.23,0,0,1-8,1.63,23.35,23.35,0,0,1-5.64-.69,9.2,9.2,0,0,1-4.09-2A4.17,4.17,0,0,1,393,127Zm5.87.15a2.75,2.75,0,0,0,1.52,2.52,8.45,8.45,0,0,0,7.47,0,2.75,2.75,0,0,0,1.5-2.52,2.72,2.72,0,0,0-1.5-2.48,8.45,8.45,0,0,0-7.47,0,2.77,2.77,0,0,0-1.51,2.47Z"/><path class="cls-6" d="M419.31,121.76h5.29v1.47a12.65,12.65,0,0,1,6.76-1.74,12.93,12.93,0,0,1,3.61.42,6.2,6.2,0,0,1,2.52,1.3,11.32,11.32,0,0,1,3.08-1.3,13.9,13.9,0,0,1,3.52-.42,14.4,14.4,0,0,1,4,.48,5.11,5.11,0,0,1,2.47,1.43,3.47,3.47,0,0,1,.59,2.25v7h-5.74v-6.22a2.71,2.71,0,0,0-.59-2.09,3.9,3.9,0,0,0-2.44-.62,7,7,0,0,0-2.26.37,2.9,2.9,0,0,0-1.52,1.08,4.16,4.16,0,0,0-.46,2.24v5.24h-5.75v-6a4.2,4.2,0,0,0-.31-2,1.79,1.79,0,0,0-.95-.69,5.37,5.37,0,0,0-1.74-.22,7.19,7.19,0,0,0-2.39.36,2.81,2.81,0,0,0-1.52,1,4.07,4.07,0,0,0-.46,2.24v5.28h-5.74Z"/></g></g></g></g></svg>