<svg xmlns="http://www.w3.org/2000/svg" viewBox="0 0 129.06 36"><defs><style>.cls-1{fill:red;}.cls-2{fill:#fff;}</style></defs><title>Asset 3</title><g id="Layer_2" data-name="Layer 2"><g id="Layer_1-2" data-name="Layer 1"><path class="cls-1" d="M22.31,6.35H10.66l.19.19a1.85,1.85,0,0,0,.14.14l.11.1.1.07a.68.68,0,0,0,.19.19.72.72,0,0,0,.2.09l.11,0,.11,0H12l.15,0a.55.55,0,0,1,.14.09.62.62,0,0,1,.1.2,1.81,1.81,0,0,1,.07.34.76.76,0,0,0-.1.15l-.15.2-.17.21a.21.21,0,0,1-.14.09.1.1,0,0,1-.07-.05.62.62,0,0,1-.09-.12,1.71,1.71,0,0,1-.07-.18.78.78,0,0,1,0-.21l-.38.37.1.19.07.14.08.13a.6.6,0,0,0,.09.13.7.7,0,0,0,.22.2.67.67,0,0,0,.33.08.33.33,0,0,0,.19-.06A1,1,0,0,0,12.52,9l.16-.2.14-.22.06-.11a.61.61,0,0,0,.07-.1L13,8.27l.07-.08A.36.36,0,0,1,13.34,8l.12,0,.14.09a.57.57,0,0,1,.11.11.16.16,0,0,1,0,.1V10l.22.22.17.15a.24.24,0,0,0,.11.06V6.85h1.14a3.47,3.47,0,0,0-.46.79,2.26,2.26,0,0,0-.18.9,2.4,2.4,0,0,0,0,.37,1.8,1.8,0,0,0,.1.4,2.17,2.17,0,0,0,.16.38,1.65,1.65,0,0,0,.24.33,1.14,1.14,0,0,0,.32.22.87.87,0,0,0,.4.09.8.8,0,0,0,.26-.05,1,1,0,0,0,.22-.13.8.8,0,0,0,.15-.21.6.6,0,0,0,.06-.27.72.72,0,0,0,0-.19,1,1,0,0,0-.1-.17.65.65,0,0,0-.16-.13.32.32,0,0,0-.19,0l-.18,0a.78.78,0,0,0-.15.1.44.44,0,0,0-.12.15.41.41,0,0,0,0,.19.5.5,0,0,0,0,.16.83.83,0,0,0,.09.16.46.46,0,0,1-.23-.14,1.2,1.2,0,0,1-.18-.26,2.83,2.83,0,0,1-.11-.31,1.69,1.69,0,0,1,0-.3,3.26,3.26,0,0,1,.05-.64,1.69,1.69,0,0,1,.18-.55,1.74,1.74,0,0,1,.34-.43A1.82,1.82,0,0,1,16.38,7l.28-.09h.07l.19.61c.07.23.16.46.26.7a6.16,6.16,0,0,0,.34.68,3.76,3.76,0,0,0,.42.58,2,2,0,0,0,.51.41,1.19,1.19,0,0,0,.62.16,1.21,1.21,0,0,0,.5-.1A1.17,1.17,0,0,0,20,9.64a1.12,1.12,0,0,0,.3-.41,1.48,1.48,0,0,0,.14-.52A1.73,1.73,0,0,0,20.35,8,1.63,1.63,0,0,0,20,7.48a1.61,1.61,0,0,0-.5-.35A1.48,1.48,0,0,0,18.93,7a.91.91,0,0,0-.32.06,1,1,0,0,0-.28.16.75.75,0,0,0-.21.26.74.74,0,0,0-.08.34,1.35,1.35,0,0,0,0,.29.58.58,0,0,0,.13.23.68.68,0,0,0,.21.17.61.61,0,0,0,.28.06.68.68,0,0,0,.44-.14A.52.52,0,0,0,19.31,8a1,1,0,0,0,0-.17.87.87,0,0,0-.07-.17h.11a.52.52,0,0,1,.24.08.92.92,0,0,1,.22.18,1.17,1.17,0,0,1,.15.27.78.78,0,0,1,0,.3.67.67,0,0,1-.1.3,1.09,1.09,0,0,1-.21.26,1,1,0,0,1-.29.18.66.66,0,0,1-.3.07,1.13,1.13,0,0,1-.49-.1,1.42,1.42,0,0,1-.41-.28,2.23,2.23,0,0,1-.35-.4q-.16-.24-.3-.48T17.3,7.5c-.07-.18-.14-.34-.2-.5l-.33-.13.22,0H21.4l-.06.08L21.28,7a1,1,0,0,0-.08.14.64.64,0,0,0-.08.14,1.34,1.34,0,0,0-.12.3A1.4,1.4,0,0,0,21,8a1.55,1.55,0,0,0,0,.37,3.58,3.58,0,0,0,.09.35,1.16,1.16,0,0,1,0,.18,1.36,1.36,0,0,1,0,.17l0,.17a1,1,0,0,1,0,.17,1.55,1.55,0,0,1,0,.23,1,1,0,0,1-.07.18.36.36,0,0,1-.11.14,1.29,1.29,0,0,1-.17.15l-.06,0-.05,0h-.06l-.14.08a.14.14,0,0,0-.05.09.2.2,0,0,0,.08.17.25.25,0,0,0,.16.06.82.82,0,0,0,.38-.11,1.54,1.54,0,0,0,.34-.29,1.56,1.56,0,0,0,.26-.39,1.06,1.06,0,0,0,.09-.42,3.71,3.71,0,0,0,0-.47c0-.15-.05-.3-.08-.46s-.06-.3-.08-.45a2.15,2.15,0,0,1,0-.45A.73.73,0,0,1,21.7,7a.54.54,0,0,1,.44-.16h2.17V7a6,6,0,0,0-1,.45,11.57,11.57,0,0,0-1,.65l.51.72a1.71,1.71,0,0,1,.75.2,1.78,1.78,0,0,1,.47.38,1.84,1.84,0,0,1,.17.22l.13.23a1.64,1.64,0,0,1,.12.22c0,.07.07.14.11.2l.1.12.06,0,.15.09V6.86h.84l-.49-.51ZM13.75,7.8a2.33,2.33,0,0,0-.16-.2.86.86,0,0,0-.2-.18.35.35,0,0,0-.23-.09.53.53,0,0,0-.17,0l-.16.1a.65.65,0,0,0-.1-.34,1.23,1.23,0,0,0-.23-.28h1.25ZM24.31,9.2a2.37,2.37,0,0,0-.48-.56,3,3,0,0,0-.63-.41,5.22,5.22,0,0,1,.54-.33,4.29,4.29,0,0,1,.57-.27Z"/><path class="cls-1" d="M23.38,9.27a.4.4,0,0,0-.29.12.41.41,0,0,0-.12.3.53.53,0,0,0,0,.17.78.78,0,0,0,.1.15.56.56,0,0,0,.15.1.45.45,0,0,0,.16,0,.36.36,0,0,0,.29-.13.48.48,0,0,0,.11-.3.44.44,0,0,0-.44-.44Z"/><path class="cls-1" d="M37.42,6.35H34.89l-.07-.08,0-.06,0-.07s0-.07,0-.14l-.3-.24c0,.13,0,.24,0,.33s0,.18,0,.26,0,.13,0,.18a.78.78,0,0,1,0,.14.59.59,0,0,0-.23-.24A.54.54,0,0,0,34,6.35h-.47v0H26.41l.2.19.13.14.12.1.1.07a.55.55,0,0,0,.18.19.88.88,0,0,0,.2.09l.12,0,.1,0h.2l.15,0a.42.42,0,0,1,.14.09.47.47,0,0,1,.1.2,1.26,1.26,0,0,1,.07.34l-.1.15c-.05.06-.09.13-.15.2s-.11.14-.16.21-.1.09-.14.09-.05,0-.08-.05a.62.62,0,0,1-.08-.12.75.75,0,0,1-.07-.18.8.8,0,0,1-.05-.21L27,8.31a1.54,1.54,0,0,1,.09.19c0,.05.05.1.08.14s0,.09.07.13l.09.13a.74.74,0,0,0,.23.2.61.61,0,0,0,.32.08.36.36,0,0,0,.2-.06A.7.7,0,0,0,28.27,9a1.56,1.56,0,0,0,.16-.2,1.64,1.64,0,0,0,.14-.22l.07-.11.06-.1.07-.09.06-.08A.38.38,0,0,1,29.09,8l.13,0,.13.09a.43.43,0,0,1,.12.11.26.26,0,0,1,0,.1V10l.22.22.16.15a.24.24,0,0,0,.11.06V6.85h2.21v.67A2,2,0,0,0,32,7.3a1,1,0,0,0-.21-.19A1.26,1.26,0,0,0,31.55,7a1.14,1.14,0,0,0-.33-.05.64.64,0,0,0-.31.07.66.66,0,0,0-.23.17.72.72,0,0,0-.14.26.81.81,0,0,0-.05.31.38.38,0,0,0,0,.19.44.44,0,0,0,.12.15.51.51,0,0,0,.16.09l.18,0a.45.45,0,0,0,.16,0,.36.36,0,0,0,.15-.08A.49.49,0,0,0,31.41,8a.33.33,0,0,0,0-.17.15.15,0,0,0,0-.09l0-.09a.09.09,0,0,1,0-.06h0s0,0,.06,0l.09,0a.54.54,0,0,1,.33.11.79.79,0,0,1,.25.27l-.63.38c-.22.13-.44.28-.67.44l.4.54a1.12,1.12,0,0,1,.45.08,1.14,1.14,0,0,1,.61.61,1.66,1.66,0,0,1,.12.45l.14.1.11.06.09,0V8.33l.21-.1a.74.74,0,0,1,.21-.07V9.84a.26.26,0,0,0,.07.14,1.14,1.14,0,0,0,.15.17l.21.18.22.15a5,5,0,0,1-.13-.74c0-.21,0-.42,0-.62s0-.42,0-.63,0-.41,0-.63a.23.23,0,0,0,0-.16.43.43,0,0,0-.12-.11l-.16-.07a.44.44,0,0,0-.15,0H33l-.15,0-.08,0-.09,0V6.85H34c.19,0,.31,0,.38.14a.9.9,0,0,1,.1.48v2.68l.21.2.17.14a.24.24,0,0,0,.11.06V6.85H36.2a3.47,3.47,0,0,0-.46.79,2.26,2.26,0,0,0-.18.9,2.4,2.4,0,0,0,0,.37,1.8,1.8,0,0,0,.1.4,2.17,2.17,0,0,0,.16.38,1.65,1.65,0,0,0,.24.33,1.14,1.14,0,0,0,.32.22.87.87,0,0,0,.4.09.7.7,0,0,0,.25-.05.67.67,0,0,0,.22-.13.65.65,0,0,0,.16-.21.59.59,0,0,0,.05-.27.68.68,0,0,0,0-.19.62.62,0,0,0-.11-.17.47.47,0,0,0-.15-.13.32.32,0,0,0-.19,0l-.18,0a.78.78,0,0,0-.15.1.44.44,0,0,0-.12.15.41.41,0,0,0,0,.19.5.5,0,0,0,0,.16l.08.16a.48.48,0,0,1-.22-.14,1.2,1.2,0,0,1-.18-.26,1.63,1.63,0,0,1-.11-.31,1.77,1.77,0,0,1,0-.3,3.24,3.24,0,0,1,.06-.64,1.69,1.69,0,0,1,.18-.55,1.54,1.54,0,0,1,.34-.43A1.82,1.82,0,0,1,37.19,7l.28-.09a1.55,1.55,0,0,1,.33,0h1.94v1.5L39.53,8a1.84,1.84,0,0,0-.26-.29A1.26,1.26,0,0,0,39,7.52a1,1,0,0,0-.39-.08.84.84,0,0,0-.35.07,1.05,1.05,0,0,0-.29.17,1,1,0,0,0-.2.28.78.78,0,0,0-.07.35.76.76,0,0,0,.19.56.73.73,0,0,0,.54.19.65.65,0,0,0,.39-.12.47.47,0,0,0,.16-.39.72.72,0,0,0-.08-.32.09.09,0,0,0,0-.06.43.43,0,0,0,0-.07h0v0a.65.65,0,0,1,.34.13,1.33,1.33,0,0,1,.29.29,2.33,2.33,0,0,1,.24.41,4.22,4.22,0,0,1,.18.45,2.93,2.93,0,0,1,.11.45,1.82,1.82,0,0,1,0,.38v.05a.2.2,0,0,1,0,.07l.28.38V6.85h.86l-.5-.5ZM29.51,7.8l-.16-.2a1.12,1.12,0,0,0-.2-.18.4.4,0,0,0-.24-.09.47.47,0,0,0-.16,0l-.17.1a.64.64,0,0,0-.09-.34,1.05,1.05,0,0,0-.24-.28h1.26Zm2.7,1.54a2.69,2.69,0,0,0-.55-.46l.27-.17.28-.16Z"/><path class="cls-1" d="M47.78,8.18a6.16,6.16,0,0,0,.34.68,3.76,3.76,0,0,0,.42.58,2.14,2.14,0,0,0,.51.41,1.22,1.22,0,0,0,.62.16,1.18,1.18,0,0,0,.5-.1,1.3,1.3,0,0,0,.43-.27,1.22,1.22,0,0,0,.29-.41A1.3,1.3,0,0,0,51,8.71,1.73,1.73,0,0,0,51,8a1.63,1.63,0,0,0-.33-.54A1.45,1.45,0,0,0,49.53,7a.91.91,0,0,0-.32.06,1,1,0,0,0-.28.16.89.89,0,0,0-.21.26.74.74,0,0,0-.08.34.93.93,0,0,0,0,.29.46.46,0,0,0,.12.23.68.68,0,0,0,.21.17.73.73,0,0,0,.72-.08A.52.52,0,0,0,49.91,8a1,1,0,0,0,0-.17.51.51,0,0,0-.07-.17h.11a.46.46,0,0,1,.24.08.92.92,0,0,1,.22.18,1.17,1.17,0,0,1,.15.27.63.63,0,0,1,0,.3.67.67,0,0,1-.1.3,1.09,1.09,0,0,1-.21.26A.88.88,0,0,1,50,9.2a.66.66,0,0,1-.3.07,1.16,1.16,0,0,1-.49-.1,1.42,1.42,0,0,1-.41-.28,2.23,2.23,0,0,1-.35-.4q-.16-.24-.3-.48L47.9,7.5c-.07-.18-.14-.34-.2-.5l-.37-.15c.05.19.12.4.19.63S47.68,7.94,47.78,8.18Z"/><path class="cls-1" d="M58.75,6.35h-.26a1.31,1.31,0,0,1-.16-.14.41.41,0,0,1-.07-.11l0-.06a.35.35,0,0,0,0-.08l0,0s0,0,0-.06A.75.75,0,0,1,58,5.76l-.12-.14v.27c0,.11,0,.21,0,.32s0,.22,0,.32,0,.19,0,.27l0,.31a2.09,2.09,0,0,0-.16-.29,1.7,1.7,0,0,0-.22-.24,1.27,1.27,0,0,0-.27-.18A.79.79,0,0,0,57,6.34a1.13,1.13,0,0,0-.49.1,1,1,0,0,0-.36.27h0l-.35-.36H46.7l0-.06a.09.09,0,0,0,0-.06.94.94,0,0,0,0-.09s0,0,0,0l0-.1a1,1,0,0,1,.11-.19,1.37,1.37,0,0,1,.2-.23,1,1,0,0,1,.29-.19,1.08,1.08,0,0,1,.42-.1,1.8,1.8,0,0,1,.53.07,3,3,0,0,1,.68.31,5.63,5.63,0,0,1,.84.6l-.17-.49a4.2,4.2,0,0,0-.44-.41A2.39,2.39,0,0,0,48.57,5,2.06,2.06,0,0,0,48,4.8a2,2,0,0,0-.6-.09,1.42,1.42,0,0,0-.45.1,2.07,2.07,0,0,0-.45.27,1.75,1.75,0,0,0-.34.38.83.83,0,0,0-.14.47.39.39,0,0,0,.07.23l.17.19h-.64c-.06,0-.11-.08-.12-.12a.44.44,0,0,1-.05-.18l0-.07-.32-.23v.43c0,.13,0,.25,0,.37v.34c0,.11,0,.22,0,.33a1.72,1.72,0,0,0-.23-.32,1.8,1.8,0,0,0-.29-.26,1.29,1.29,0,0,0-.33-.17,1.21,1.21,0,0,0-.38-.06,1.18,1.18,0,0,0-.41.08,2,2,0,0,0-.47.22,1.83,1.83,0,0,0-.39.34.7.7,0,0,0-.15.43.27.27,0,0,0,0,.12.24.24,0,0,0,.07.12.31.31,0,0,0,.11.09.28.28,0,0,0,.13,0,.3.3,0,0,0,.12,0l.07,0,.06,0,.1,0h.1a.11.11,0,0,1,.08,0,.18.18,0,0,1,.05.07s0,.06,0,.09V8a.27.27,0,0,1,0,.12l-.08.12-.06.06-.05.05-.07.07L43,8.53l.65.26,1.15-1.2.1.12a1,1,0,0,1,.1.17,1.22,1.22,0,0,1,.07.17.39.39,0,0,1,0,.14v.59c0,.11,0,.22,0,.33s0,.2,0,.31l-.2-.14a1.59,1.59,0,0,0-.41-.16A2.23,2.23,0,0,0,44.05,9l-.44,0-.4,0a.87.87,0,0,1-.31-.1.55.55,0,0,1-.21-.19.69.69,0,0,1-.07-.32s0,0,0-.06a.69.69,0,0,1,0-.1l-.33-.34a2.6,2.6,0,0,0-.05.42c0,.11,0,.22,0,.31a1.12,1.12,0,0,0,.36.83,1.1,1.1,0,0,0,.37.23,1.44,1.44,0,0,0,.46.08h.43l.44,0a1.73,1.73,0,0,1,.36,0,.54.54,0,0,1,.23.1.47.47,0,0,1,.16.18v0l0,0,.16.27a.2.2,0,0,0,0,.08l.06.1a.51.51,0,0,0,.09.13,1.23,1.23,0,0,0,.16.15v-.53a.14.14,0,0,0,0-.06V6.85h.73V10s0,0,0,.07,0,0,0,0v0l0,0,.06.05.06.07.09.07a.47.47,0,0,0,.1.1l.11.11V6.85h4.55l.13,0h.12c.15,0,.22.11.23.21a.4.4,0,0,0-.32.2.65.65,0,0,0-.1.36.75.75,0,0,0,0,.2,1,1,0,0,0,.1.17.29.29,0,0,0,.14.13.36.36,0,0,0,.21,0l.18,0a.58.58,0,0,0,.15-.11.42.42,0,0,0,.11-.15.6.6,0,0,0,.06-.19.31.31,0,0,1,.19,0,.33.33,0,0,1,.17.1.57.57,0,0,1,.12.18.41.41,0,0,1,0,.22.83.83,0,0,0-.22,0,.5.5,0,0,0-.19.1.55.55,0,0,0-.13.17.46.46,0,0,0-.06.23.53.53,0,0,0,.14.39.51.51,0,0,0,.38.14.52.52,0,0,0,.3-.08.5.5,0,0,0,.2-.23.93.93,0,0,1,.38.35,2.57,2.57,0,0,1,.23.47c0,.06.05.12.07.19l.06.21.09.11a.47.47,0,0,0,.09.12l.11.16V7.85a.82.82,0,0,1,.23,0A1,1,0,0,1,55,7.9a.28.28,0,0,1,.16.27.4.4,0,0,0-.2-.09h-.2a.2.2,0,0,0-.13,0l-.1.1a.84.84,0,0,0-.06.14.39.39,0,0,0,0,.15.4.4,0,0,0,.15.29.62.62,0,0,0,.45.13.41.41,0,0,0,.25-.07.46.46,0,0,0,.16-.15.85.85,0,0,0,.09-.22.89.89,0,0,0,0-.22,1,1,0,0,0-.39-.78,1.19,1.19,0,0,0-.85-.22V6.85H56a1,1,0,0,0-.12.26,1.53,1.53,0,0,0-.08.49,1.14,1.14,0,0,0,.07.41,1.13,1.13,0,0,0,.21.35,1,1,0,0,0,.31.24,1,1,0,0,0,.42.09.6.6,0,0,0,.22,0,.88.88,0,0,0,.22-.1.73.73,0,0,0,.17-.18.48.48,0,0,0,.06-.24.41.41,0,0,0,0-.19.48.48,0,0,0-.1-.17.33.33,0,0,0-.15-.11.46.46,0,0,0-.2,0,.5.5,0,0,0-.27.08.29.29,0,0,0-.12.27V8.1A.38.38,0,0,1,56.55,8l-.06-.14,0-.15s0-.09,0-.13a.54.54,0,0,1,0-.22.5.5,0,0,1,.13-.19A.62.62,0,0,1,56.81,7,.54.54,0,0,1,57,7a.63.63,0,0,1,.33.09,1.07,1.07,0,0,1,.45.57,1.13,1.13,0,0,1,.06.36v2l.06.07.14.14.06.08.06.06,0,0,.06,0s0,0,0-.08l.08.08V6.85h.87ZM43.81,7.75a.64.64,0,0,0-.16-.33.45.45,0,0,0-.29-.18A.78.78,0,0,1,44,6.93a.54.54,0,0,1,.41.18Zm10.06,1.1a1.27,1.27,0,0,0-.4-.4,1.27,1.27,0,0,0-.22-.66,1.77,1.77,0,0,0-.41-.41.9.9,0,0,0-.22-.14l-.19-.1-.13,0h0A.61.61,0,0,1,52.23,7l0-.12h.66a1,1,0,0,0,.13.38,1.32,1.32,0,0,0,.54.54,1.09,1.09,0,0,0,.36.12Zm0-1.49h-.14a1,1,0,0,1-.21-.07.36.36,0,0,1-.15-.12.36.36,0,0,1-.06-.22l0,0s0,0,0,0h.56Z"/><path class="cls-1" d="M59.71,9.51a.48.48,0,0,0-.34.13.45.45,0,0,0-.14.33.53.53,0,0,0,.13.36.48.48,0,0,0,.35.13.48.48,0,0,0,.33-.13.42.42,0,0,0,.14-.33.52.52,0,0,0-.12-.36A.46.46,0,0,0,59.71,9.51Z"/><path class="cls-1" d="M61.35,9.51a.48.48,0,0,0-.34.13.45.45,0,0,0-.14.33.45.45,0,0,0,.48.49.48.48,0,0,0,.33-.13.42.42,0,0,0,.14-.33.48.48,0,0,0-.13-.36A.44.44,0,0,0,61.35,9.51Z"/><path class="cls-1" d="M63.33,9.64a.51.51,0,0,0-.68,0,.45.45,0,0,0-.14.33.48.48,0,0,0,.13.36.48.48,0,0,0,.34.13.44.44,0,0,0,.33-.13.4.4,0,0,0,.15-.33A.48.48,0,0,0,63.33,9.64Z"/><path class="cls-1" d="M104,11.42,99.56,7a23.81,23.81,0,0,0,9.49-6l3.59,2.73Q107.68,9.88,104,11.42Z"/><path d="M31.55,11.39H7.47V3.45c0-.68.16-1,.47-1H19.2c.25,0,.38.26.38.66v2.1h5.68V2.29C25.26.76,24.42,0,22.73,0H4.82q-3,0-3,2.43V6.27h0v5.12H0v2.54H1.78V36H7.47V13.93h3.09v10l5.68,1.24V22.92c2.06-2.33,4-3.57,5.71-3.72A5.6,5.6,0,0,0,20,23.67a4.17,4.17,0,0,0,1.12,2.9,8,8,0,0,0,3.27,2l5.05-2.81c-2.5-.19-3.75-1-3.75-2.46A3.53,3.53,0,0,1,27,20.59a5.19,5.19,0,0,1,1.67-.92,7.32,7.32,0,0,1,2.43-.36l-3.89-3.59A3.49,3.49,0,0,0,26,15.05a4.23,4.23,0,0,0-1.49-.24,12.81,12.81,0,0,0-8.31,3.26V13.93H42.37v.33q-2.65,2-9,3.64v7.76c0,1.65,1,2.62,3.07,2.89H48.05V17.32h.3c1.77,0,2.65.66,2.65,2s-.52,2-1.57,2h-.17V24.3h3.59c2.56,0,3.83-.79,3.83-2.37V17.24c0-1.54-2.87-2.54-8.63-3v-.33H58.51V11.39h-27ZM42.37,25.21c0,.65-.53,1-1.57,1s-1.74-.42-1.74-1.24V18.9a19.41,19.41,0,0,0,3.31-1.49Z"/><path d="M63.75,13.93h1.82v10l5.68,1.24V22.92q3.09-3.5,5.71-3.72A5.57,5.57,0,0,0,75,23.67a4.12,4.12,0,0,0,1.12,2.9,8,8,0,0,0,3.27,2l5-2.81c-2.5-.19-3.75-1-3.75-2.46A3.58,3.58,0,0,1,82,20.59a5.19,5.19,0,0,1,1.67-.92,7.3,7.3,0,0,1,2.42-.36l-3.89-3.59A3.39,3.39,0,0,0,81,15.05a4.19,4.19,0,0,0-1.49-.24,12.8,12.8,0,0,0-8.3,3.26V13.93H87.11V11.39H63.75Z"/><path d="M101.29,13.54a4.4,4.4,0,0,0-3.59-2.15h-7c-1.57,0-2.35.66-2.35,2v4.72c0,1.36.73,2,2.18,2h2.18c1,0,1.54.41,1.54,1.21v.31l-5.9,2v4.16l12.91-4.25v5.05H107V13.93h1.82V11.39h-7.5Zm0,6.13L100,20c-.27-1.47-.92-2.21-1.93-2.21H95.69c-1.08,0-1.63-.29-1.63-.88v-1q0-1.38.75-1.38,5.35,0,6.48,3.64Z"/><path d="M129.06,11.39h-1.83V6.27H121.4v6.37c-.6-.83-1.17-1.25-1.72-1.25H112c-1.32,0-2,.87-2,2.6v7.75a2.11,2.11,0,0,0,2.41,2.34h6v-3.5h-1.7q-.9,0-.9-.69V16.5c0-1,.91-1.49,2.74-1.49a3.42,3.42,0,0,1,2.06.51,1.68,1.68,0,0,1,.68,1.45V28.55h0V36h5.83V13.93h1.83Z"/><rect class="cls-1" x="10.66" y="29.8" width="107.74" height="6.2"/><path class="cls-2" d="M14.14,34.29l-1.77-2.8h1.44l1,1.84,1-1.84h1.42l.93,1.84,1.07-1.84H20.7l-1.79,2.8H17.49l-1-1.8-.94,1.8Z"/><path class="cls-2" d="M22.53,34.29l-1.77-2.8H22.2l1.05,1.84,1-1.84h1.42l.93,1.84,1.07-1.84h1.46l-1.8,2.8H25.87l-1-1.8L24,34.29Z"/><path class="cls-2" d="M30.92,34.29l-1.77-2.8h1.44l1.05,1.84,1-1.84H34L35,33.33,36,31.49h1.46l-1.8,2.8H34.26l-1-1.8-.95,1.8Z"/><path class="cls-2" d="M37.85,34.29v-.73h1.49v.73Z"/><path class="cls-2" d="M46,34.29H44.61v-.41a2.5,2.5,0,0,1-.81.36,3.73,3.73,0,0,1-.94.12A3.3,3.3,0,0,1,41.21,34a1.21,1.21,0,0,1-.68-1.09,1.2,1.2,0,0,1,.66-1.09,3.55,3.55,0,0,1,1.69-.37,3.17,3.17,0,0,1,1.61.39V30.43H46Zm-3.93-1.45a.8.8,0,0,0,.25.66,1.83,1.83,0,0,0,1.86.07.71.71,0,0,0,.36-.66.77.77,0,0,0-.35-.7,1.67,1.67,0,0,0-.89-.22,1.62,1.62,0,0,0-.88.22A.69.69,0,0,0,42.05,32.84Z"/><path class="cls-2" d="M47.45,31.11v-.68h1.48v.68Zm0,3.18v-2.8h1.48v2.8Z"/><path class="cls-2" d="M50.38,34.29V30.43h1.48v2l1.74-1h1.82l-1.91,1,2.05,1.77H54L52.55,33l-.69.37v.89Z"/><path class="cls-2" d="M61.56,34.29H60.19v-.41a2.5,2.5,0,0,1-.81.36,3.73,3.73,0,0,1-.94.12A3.3,3.3,0,0,1,56.79,34a1.21,1.21,0,0,1-.68-1.09,1.2,1.2,0,0,1,.66-1.09,3.55,3.55,0,0,1,1.69-.37,3.24,3.24,0,0,1,1.62.39V30.43h1.48Zm-3.93-1.45a.8.8,0,0,0,.25.66,1.57,1.57,0,0,0,1,.29,1.55,1.55,0,0,0,.86-.22.71.71,0,0,0,.36-.66.75.75,0,0,0-.35-.7,1.66,1.66,0,0,0-.88-.22,1.6,1.6,0,0,0-.88.22A.68.68,0,0,0,57.63,32.84Z"/><path class="cls-2" d="M64.12,32.34l-1.34-.12a1.42,1.42,0,0,1,.79-.6,5.25,5.25,0,0,1,1.65-.2,6.68,6.68,0,0,1,1.48.12,1.72,1.72,0,0,1,.69.3.88.88,0,0,1,.19.66l0,.87a1.52,1.52,0,0,0,.07.55,1.14,1.14,0,0,0,.26.37H66.43a1.24,1.24,0,0,1-.14-.21L66.24,34a3.76,3.76,0,0,1-.82.27,4.49,4.49,0,0,1-.92.09,3.22,3.22,0,0,1-1.37-.23c-.33-.16-.5-.36-.5-.6a.55.55,0,0,1,.23-.42,1.52,1.52,0,0,1,.64-.29,10.16,10.16,0,0,1,1.18-.17c.69-.07,1.18-.13,1.45-.18v-.08a.32.32,0,0,0-.22-.3,2.1,2.1,0,0,0-.81-.1,2,2,0,0,0-.62.08A.69.69,0,0,0,64.12,32.34Zm2,.6-.91.12a4.38,4.38,0,0,0-.81.13c-.2.07-.29.16-.29.27s.07.2.23.27a1.26,1.26,0,0,0,.59.12,2.19,2.19,0,0,0,.77-.14.64.64,0,0,0,.36-.25.77.77,0,0,0,.06-.37Z"/><path class="cls-2" d="M70.45,34.29H69v-2.8h1.37v.4a2.37,2.37,0,0,1,.64-.38,2.06,2.06,0,0,1,.64-.09,3.5,3.5,0,0,1,1,.14l-.45.65a2.29,2.29,0,0,0-.7-.12,1.35,1.35,0,0,0-.52.09.61.61,0,0,0-.34.31,2.34,2.34,0,0,0-.12.94Z"/><path class="cls-2" d="M73.17,31.49h1.38v.41a2.26,2.26,0,0,1,.73-.34,3.64,3.64,0,0,1,1-.14,3.31,3.31,0,0,1,1.66.39,1.18,1.18,0,0,1,.68,1.07A1.2,1.2,0,0,1,78,34a3.31,3.31,0,0,1-1.66.39,3.61,3.61,0,0,1-.84-.09,3.15,3.15,0,0,1-.79-.31v1.41H73.17Zm1.46,1.35a.77.77,0,0,0,.37.71,1.76,1.76,0,0,0,.91.23,1.61,1.61,0,0,0,.86-.21.74.74,0,0,0,.34-.69.73.73,0,0,0-.35-.67,1.89,1.89,0,0,0-1.77,0A.68.68,0,0,0,74.63,32.84Z"/><path class="cls-2" d="M79.46,32.85a1,1,0,0,1,.37-.72,2.45,2.45,0,0,1,1-.53,5.74,5.74,0,0,1,1.49-.18,4.48,4.48,0,0,1,2.07.42,1.2,1.2,0,0,1,.81,1.05q0,.63-.81,1a4.5,4.5,0,0,1-2.06.42,5.78,5.78,0,0,1-1.46-.17,2.44,2.44,0,0,1-1.06-.51A1.07,1.07,0,0,1,79.46,32.85Zm1.53,0a.71.71,0,0,0,.39.65,2.23,2.23,0,0,0,1.93,0,.71.71,0,0,0,.39-.65.7.7,0,0,0-.39-.64,2.14,2.14,0,0,0-1.93,0A.7.7,0,0,0,81,32.89Z"/><path class="cls-2" d="M91.46,34.29H90V32.86a1.24,1.24,0,0,0-.09-.59.72.72,0,0,0-.31-.2,1.52,1.52,0,0,0-.51-.08,2.12,2.12,0,0,0-.69.11.73.73,0,0,0-.41.28,1.24,1.24,0,0,0-.11.64v1.27H86.37v-2.8h1.37v.41a3.29,3.29,0,0,1,1.84-.48,4.16,4.16,0,0,1,.9.09,1.69,1.69,0,0,1,.61.23.71.71,0,0,1,.29.31,1.11,1.11,0,0,1,.08.5Z"/><path class="cls-2" d="M93,34.29v-.73h1.49v.73Z"/><path class="cls-2" d="M100.86,32.3l-1.46.13a.53.53,0,0,0-.34-.33,1.82,1.82,0,0,0-.68-.11,1.71,1.71,0,0,0-.88.2.69.69,0,0,0-.33.65.77.77,0,0,0,.34.72,2.06,2.06,0,0,0,1.58.08.69.69,0,0,0,.38-.42l1.46.13a1.51,1.51,0,0,1-.87.76,4.78,4.78,0,0,1-1.72.25,4.16,4.16,0,0,1-2-.39,1.16,1.16,0,0,1-.73-1.07,1.19,1.19,0,0,1,.73-1.09,4.25,4.25,0,0,1,2-.39,4.81,4.81,0,0,1,1.63.22A1.57,1.57,0,0,1,100.86,32.3Z"/><path class="cls-2" d="M101.63,32.85a1,1,0,0,1,.36-.72,2.56,2.56,0,0,1,1-.53,5.74,5.74,0,0,1,1.49-.18,4.48,4.48,0,0,1,2.07.42,1.2,1.2,0,0,1,.81,1.05c0,.42-.27.77-.82,1a4.45,4.45,0,0,1-2,.42,5.92,5.92,0,0,1-1.47-.17,2.56,2.56,0,0,1-1.06-.51A1.1,1.1,0,0,1,101.63,32.85Zm1.53,0a.71.71,0,0,0,.39.65,2.23,2.23,0,0,0,1.93,0,.71.71,0,0,0,.39-.65.7.7,0,0,0-.39-.64,2.14,2.14,0,0,0-1.93,0A.7.7,0,0,0,103.16,32.89Z"/><path class="cls-2" d="M108.45,31.49h1.37v.38a3.28,3.28,0,0,1,1.75-.45,3.59,3.59,0,0,1,.93.11,1.67,1.67,0,0,1,.65.34,3.16,3.16,0,0,1,.8-.34,3.78,3.78,0,0,1,.91-.11,3.47,3.47,0,0,1,1,.13,1.21,1.21,0,0,1,.64.37.9.9,0,0,1,.15.58v1.79h-1.48v-1.6c0-.28,0-.46-.16-.54a1,1,0,0,0-.63-.16,1.86,1.86,0,0,0-.58.1.69.69,0,0,0-.39.28,1.07,1.07,0,0,0-.12.58v1.34h-1.49V32.76a1.14,1.14,0,0,0-.08-.53.45.45,0,0,0-.24-.18,1.42,1.42,0,0,0-.46-.06,1.7,1.7,0,0,0-.61.1.76.76,0,0,0-.4.26,1.07,1.07,0,0,0-.12.58v1.36h-1.48Z"/></g></g></svg>