<svg xmlns="http://www.w3.org/2000/svg" viewBox="0 0 258.12 72"><defs><style>.cls-1{fill:red;}.cls-2{fill:#fff;}</style></defs><title>Asset 2</title><g id="Layer_2" data-name="Layer 2"><g id="Layer_1-2" data-name="Layer 1"><path class="cls-1" d="M44.63,12.71v0H21.32l.39.4.26.27.23.2.21.14a1.32,1.32,0,0,0,.36.38,1.65,1.65,0,0,0,.41.18,1,1,0,0,0,.22.05l.21,0,.2,0,.2,0,.31.07a.61.61,0,0,1,.27.19,1.18,1.18,0,0,1,.21.39,3.45,3.45,0,0,1,.14.68l-.21.29c-.09.14-.19.27-.3.42s-.22.28-.33.4a.44.44,0,0,1-.28.19.25.25,0,0,1-.15-.09,1.36,1.36,0,0,1-.16-.25,1.5,1.5,0,0,1-.15-.36,3.15,3.15,0,0,1-.09-.42l-.75.74c.08.15.15.27.2.38l.14.28c.05.09.1.18.16.27a2.2,2.2,0,0,0,.17.25,1.9,1.9,0,0,0,.45.4,1.3,1.3,0,0,0,.65.15.76.76,0,0,0,.39-.1A1.76,1.76,0,0,0,25,18a2.53,2.53,0,0,0,.31-.39c.1-.14.19-.29.29-.44l.13-.22.13-.2a1.88,1.88,0,0,1,.12-.18l.13-.17a.75.75,0,0,1,.53-.3.64.64,0,0,1,.24.07,1.67,1.67,0,0,1,.28.18,1.14,1.14,0,0,1,.22.22.37.37,0,0,1,.09.2v3.31l.43.45q.16.16.33.3c.11.08.18.13.22.13V13.7h2.28a7.06,7.06,0,0,0-.91,1.57,4.6,4.6,0,0,0-.36,1.81,5.14,5.14,0,0,0,.06.75,5.85,5.85,0,0,0,.2.8,3.89,3.89,0,0,0,.33.76,3.53,3.53,0,0,0,.48.65,2.4,2.4,0,0,0,.63.45,1.91,1.91,0,0,0,.8.16,1.52,1.52,0,0,0,.51-.09,1.3,1.3,0,0,0,.44-.27,1.12,1.12,0,0,0,.3-.41,1.18,1.18,0,0,0,.12-.53A1.07,1.07,0,0,0,33.3,19a1.55,1.55,0,0,0-.21-.35,1.42,1.42,0,0,0-.3-.25.76.76,0,0,0-.39-.1.87.87,0,0,0-.35.07,1,1,0,0,0-.32.19,1.33,1.33,0,0,0-.23.3,1,1,0,0,0-.08.37.85.85,0,0,0,.07.33,1.59,1.59,0,0,0,.16.32,1,1,0,0,1-.45-.28,2.15,2.15,0,0,1-.35-.52,2.69,2.69,0,0,1-.22-.62,2.76,2.76,0,0,1-.08-.6,7.44,7.44,0,0,1,.11-1.28A3.78,3.78,0,0,1,31,15.45a3,3,0,0,1,.68-.87,3.79,3.79,0,0,1,1.06-.64,5.18,5.18,0,0,1,.56-.17l.15,0c.1.38.23.78.37,1.22s.32.93.52,1.39A11.64,11.64,0,0,0,35,17.72a6.39,6.39,0,0,0,.84,1.16,4,4,0,0,0,1,.83,2.54,2.54,0,0,0,1.22.31A2.65,2.65,0,0,0,40,19.29a3.15,3.15,0,0,0,.6-.83,2.9,2.9,0,0,0,.27-1A3.31,3.31,0,0,0,40.69,16,3.09,3.09,0,0,0,40,15a2.85,2.85,0,0,0-1-.69A2.92,2.92,0,0,0,37.86,14a1.81,1.81,0,0,0-.64.12,1.64,1.64,0,0,0-.57.33,1.88,1.88,0,0,0-.41.51,1.47,1.47,0,0,0-.15.67,1.81,1.81,0,0,0,.08.58,1.38,1.38,0,0,0,.25.48,1.3,1.3,0,0,0,.41.32,1.34,1.34,0,0,0,.58.12,1.38,1.38,0,0,0,.88-.27,1.11,1.11,0,0,0,.34-.89,2.2,2.2,0,0,0,0-.36,1.19,1.19,0,0,0-.13-.34l.11,0h.1a1,1,0,0,1,.48.14,1.67,1.67,0,0,1,.74.9,1.26,1.26,0,0,1,.09.6,1.56,1.56,0,0,1-.2.62,2.17,2.17,0,0,1-.43.52,2.76,2.76,0,0,1-.57.36,1.44,1.44,0,0,1-.6.13,2.29,2.29,0,0,1-1-.2,3.19,3.19,0,0,1-.83-.56,4.64,4.64,0,0,1-.7-.81,7.64,7.64,0,0,1-.58-1c-.18-.33-.34-.67-.49-1s-.29-.67-.41-1l-.66-.28a3.19,3.19,0,0,1,.45,0H42.8l-.12.16-.11.16-.18.28-.15.27a3.51,3.51,0,0,0-.24.61,2.73,2.73,0,0,0-.09.74,3.63,3.63,0,0,0,.08.73c.06.25.12.49.19.72l.09.35c0,.12,0,.23.08.34s0,.23,0,.34a1.84,1.84,0,0,1,0,.33,2.11,2.11,0,0,1,0,.47,1,1,0,0,1-.12.35,1.54,1.54,0,0,1-.23.29,3.6,3.6,0,0,1-.34.3l-.12.05-.11,0-.11,0a.87.87,0,0,0-.27.15.23.23,0,0,0-.11.18.4.4,0,0,0,.15.33.51.51,0,0,0,.33.13,1.54,1.54,0,0,0,.75-.22,3.08,3.08,0,0,0,.69-.57,3.27,3.27,0,0,0,.51-.78,2.11,2.11,0,0,0,.2-.86,5.62,5.62,0,0,0-.07-.92c0-.31-.1-.62-.16-.92s-.12-.61-.17-.9a5.46,5.46,0,0,1-.07-.9A1.5,1.5,0,0,1,43.4,14a1.07,1.07,0,0,1,.88-.33h4.35v.21a10.93,10.93,0,0,0-2.11.91,19.65,19.65,0,0,0-2,1.29l1,1.44A3.43,3.43,0,0,1,47,18a4,4,0,0,1,.94.76q.18.22.33.45l.28.47.23.43q.11.21.21.39a1.32,1.32,0,0,0,.21.25l.12.09.29.17V13.71h1.7l-1-1ZM27.51,15.6a4.93,4.93,0,0,0-.33-.4,2.33,2.33,0,0,0-.4-.36.75.75,0,0,0-.46-.17.8.8,0,0,0-.33.08,2.79,2.79,0,0,0-.33.19,1.41,1.41,0,0,0-.19-.68A2.11,2.11,0,0,0,25,13.7h2.52Zm21.12,2.8a4.84,4.84,0,0,0-1-1.13,5.5,5.5,0,0,0-1.26-.8,9.06,9.06,0,0,1,1.08-.67,9.49,9.49,0,0,1,1.16-.53Z"/><path class="cls-1" d="M46.76,18.53a.75.75,0,0,0-.57.25.81.81,0,0,0-.24.59.72.72,0,0,0,.08.35,1,1,0,0,0,.19.29.94.94,0,0,0,.29.2.8.8,0,0,0,.34.07.71.71,0,0,0,.57-.27.91.91,0,0,0,.23-.59.86.86,0,0,0-.27-.63A.89.89,0,0,0,46.76,18.53Z"/><path class="cls-1" d="M74.84,12.69H69.78l-.14-.14a.42.42,0,0,1-.09-.14.52.52,0,0,1-.06-.13,2,2,0,0,1,0-.29l-.59-.48c0,.26,0,.49.07.68s0,.36.06.5,0,.27,0,.37,0,.2,0,.29a1.42,1.42,0,0,0-.47-.5,1.38,1.38,0,0,0-.54-.15h-1l0,0H52.83l.38.4a3.44,3.44,0,0,1,.27.27l.23.2a1.09,1.09,0,0,0,.21.14,1.32,1.32,0,0,0,.36.38,1.65,1.65,0,0,0,.41.18,1,1,0,0,0,.22.05l.21,0,.2,0,.2,0,.3.07a.59.59,0,0,1,.28.19,1.18,1.18,0,0,1,.21.39,2.92,2.92,0,0,1,.13.68l-.2.29c-.09.14-.19.27-.3.42s-.22.28-.33.4-.2.19-.28.19a.22.22,0,0,1-.15-.09,1.36,1.36,0,0,1-.16-.25,1.5,1.5,0,0,1-.15-.36,3.15,3.15,0,0,1-.09-.42l-.75.74c.08.15.15.27.2.38l.14.28.15.27.18.25a1.9,1.9,0,0,0,.45.4,1.3,1.3,0,0,0,.65.15.76.76,0,0,0,.39-.1,1.48,1.48,0,0,0,.35-.28,2.08,2.08,0,0,0,.32-.39c.1-.14.19-.29.29-.44l.12-.22.13-.2.13-.18.13-.17a.75.75,0,0,1,.53-.3.64.64,0,0,1,.24.07,1.67,1.67,0,0,1,.28.18,1.14,1.14,0,0,1,.22.22.37.37,0,0,1,.09.2v3.31c.15.17.3.32.43.45s.22.21.33.3.18.13.22.13V13.7h4.41V15a5.54,5.54,0,0,0-.37-.45,2.93,2.93,0,0,0-.42-.37A2.3,2.3,0,0,0,63.1,14a2.22,2.22,0,0,0-.65-.09,1.54,1.54,0,0,0-.63.12,1.34,1.34,0,0,0-.46.35,1.55,1.55,0,0,0-.29.52,1.79,1.79,0,0,0-.1.62.71.71,0,0,0,.1.39,1,1,0,0,0,.24.29.92.92,0,0,0,.32.18.84.84,0,0,0,.35.07,1,1,0,0,0,.33-.06,1,1,0,0,0,.29-.18.73.73,0,0,0,.22-.27.66.66,0,0,0,.08-.34.51.51,0,0,0,0-.17l-.08-.18a.26.26,0,0,1-.07-.12.05.05,0,0,1,0,0s0-.05.13,0l.17,0a1.2,1.2,0,0,1,.66.23,1.32,1.32,0,0,1,.49.54l-1.26.77c-.43.25-.87.54-1.33.86l.79,1.09a2.36,2.36,0,0,1,.9.16,2.27,2.27,0,0,1,.72.48,2.44,2.44,0,0,1,.51.74,3.33,3.33,0,0,1,.25.9A2.22,2.22,0,0,0,65,21a1.64,1.64,0,0,0,.22.14.46.46,0,0,0,.18.06V16.66l.42-.2a1.7,1.7,0,0,1,.43-.15v3.37a.48.48,0,0,0,.12.28,2.48,2.48,0,0,0,.32.35c.13.12.27.23.42.35a3.25,3.25,0,0,0,.43.29,8.81,8.81,0,0,1-.26-1.47c0-.42,0-.84,0-1.24s0-.85,0-1.26,0-.82.09-1.26a.47.47,0,0,0-.08-.31.78.78,0,0,0-.25-.23A1.3,1.3,0,0,0,66.7,15a1.24,1.24,0,0,0-.31,0A1.9,1.9,0,0,0,66,15a1.4,1.4,0,0,0-.29.09l-.18.08-.17.08V13.7H68a.7.7,0,0,1,.75.26,1.85,1.85,0,0,1,.2,1v5.36a5.33,5.33,0,0,0,.43.41,2.67,2.67,0,0,0,.32.28.47.47,0,0,0,.24.13V13.7h2.5a7.51,7.51,0,0,0-.92,1.57,4.78,4.78,0,0,0-.35,1.81,5.14,5.14,0,0,0,.06.75,5.8,5.8,0,0,0,.19.8,4.66,4.66,0,0,0,.34.76,2.81,2.81,0,0,0,.48.65,2.4,2.4,0,0,0,.63.45,1.87,1.87,0,0,0,.8.16,1.52,1.52,0,0,0,.51-.09,1.33,1.33,0,0,0,.74-.68,1.18,1.18,0,0,0,.12-.53,1.09,1.09,0,0,0-.08-.39,1.51,1.51,0,0,0-.2-.35,1.26,1.26,0,0,0-.31-.25.7.7,0,0,0-.38-.1.84.84,0,0,0-.35.07.94.94,0,0,0-.32.19,1.33,1.33,0,0,0-.23.3.81.81,0,0,0-.09.37,1.09,1.09,0,0,0,.07.33,2.4,2.4,0,0,0,.17.32,1,1,0,0,1-.45-.28,2.15,2.15,0,0,1-.35-.52,2.69,2.69,0,0,1-.22-.62,2.26,2.26,0,0,1-.08-.6,7.47,7.47,0,0,1,.1-1.28,3.79,3.79,0,0,1,.37-1.09,3,3,0,0,1,.68-.87,3.79,3.79,0,0,1,1.06-.64,5.18,5.18,0,0,1,.56-.17,2.62,2.62,0,0,1,.66-.07h3.87v3a4.59,4.59,0,0,0-.42-.66,3.66,3.66,0,0,0-.52-.59,2.5,2.5,0,0,0-.64-.41,1.92,1.92,0,0,0-.77-.15,2,2,0,0,0-.69.12,1.72,1.72,0,0,0-.58.36,1.52,1.52,0,0,0-.4.54,1.64,1.64,0,0,0-.15.71,1.54,1.54,0,0,0,.38,1.11,1.47,1.47,0,0,0,1.09.39,1.2,1.2,0,0,0,.76-.25.9.9,0,0,0,.33-.77,1.33,1.33,0,0,0-.15-.63.83.83,0,0,0-.07-.13.64.64,0,0,0-.08-.14l0,0s0,0,0,0a1.27,1.27,0,0,1,.67.26,2.49,2.49,0,0,1,.59.58,5.22,5.22,0,0,1,.47.81,8.59,8.59,0,0,1,.36.91,5.41,5.41,0,0,1,.23.9,4.58,4.58,0,0,1,.08.77v.09s0,.08,0,.15l.56.75V13.7h1.73l-1-1ZM59,15.6c-.1-.12-.2-.26-.33-.4a2.77,2.77,0,0,0-.4-.36.78.78,0,0,0-.47-.17.79.79,0,0,0-.32.08,2.79,2.79,0,0,0-.33.19,1.41,1.41,0,0,0-.19-.68,2.11,2.11,0,0,0-.48-.56H59Zm5.39,3.09a4.6,4.6,0,0,0-1.09-.93l.54-.34.55-.33Z"/><path class="cls-1" d="M95.56,16.35a13.43,13.43,0,0,0,.68,1.37,7,7,0,0,0,.85,1.16,3.84,3.84,0,0,0,1,.83,2.55,2.55,0,0,0,1.23.31,2.83,2.83,0,0,0,1-.19,2.63,2.63,0,0,0,.84-.54,2.76,2.76,0,0,0,.6-.83,2.9,2.9,0,0,0,.27-1,3.16,3.16,0,0,0-.17-1.39,3,3,0,0,0-.65-1.08A3,3,0,0,0,99.07,14a1.87,1.87,0,0,0-.65.12,1.51,1.51,0,0,0-.56.33,1.57,1.57,0,0,0-.41.51,1.35,1.35,0,0,0-.16.67,2.14,2.14,0,0,0,.08.58,1.57,1.57,0,0,0,.25.48A1.34,1.34,0,0,0,98,17a1.26,1.26,0,0,0,.57.12,1.38,1.38,0,0,0,.88-.27,1.08,1.08,0,0,0,.34-.89,1.47,1.47,0,0,0,0-.36,1,1,0,0,0-.13-.34l.11,0h.11a1,1,0,0,1,.48.14,1.69,1.69,0,0,1,.43.37,2,2,0,0,1,.31.53,1.57,1.57,0,0,1,.09.6,1.75,1.75,0,0,1-.21.62,1.78,1.78,0,0,1-.43.52,3,3,0,0,1-.56.36,1.52,1.52,0,0,1-.61.13,2.25,2.25,0,0,1-1-.2,3,3,0,0,1-.83-.56,4.68,4.68,0,0,1-.71-.81,7.64,7.64,0,0,1-.58-1c-.18-.33-.34-.67-.49-1s-.28-.67-.41-1l-.73-.31c.11.38.23.8.38,1.26S95.36,15.89,95.56,16.35Z"/><path class="cls-1" d="M117.5,12.7H117a1.5,1.5,0,0,1-.31-.28,1,1,0,0,1-.16-.21.83.83,0,0,0-.07-.13.89.89,0,0,0-.09-.16l-.06-.09a.91.91,0,0,0-.1-.13l-.16-.18-.25-.28c0,.16,0,.34,0,.55s0,.42,0,.63l0,.64c0,.21,0,.39,0,.54l.05.62a4.08,4.08,0,0,0-.34-.57,2.58,2.58,0,0,0-.43-.5,2,2,0,0,0-.53-.34,1.53,1.53,0,0,0-.64-.14,2.32,2.32,0,0,0-1,.2,2.07,2.07,0,0,0-.72.54h0l-.71-.71H93.39s0-.07,0-.11l-.06-.13-.07-.16s0-.07,0-.09a.75.75,0,0,1,.07-.19,1.69,1.69,0,0,1,.21-.39,3.2,3.2,0,0,1,.4-.46,2.16,2.16,0,0,1,.59-.39,2.48,2.48,0,0,1,.82-.18,3.09,3.09,0,0,1,1.08.14,6.7,6.7,0,0,1,1.36.61,11.27,11.27,0,0,1,1.66,1.19l-.32-1a11.67,11.67,0,0,0-.9-.82,6.53,6.53,0,0,0-1-.68A5.38,5.38,0,0,0,96,9.6a4,4,0,0,0-1.2-.17,2.22,2.22,0,0,0-.89.2,3.7,3.7,0,0,0-.9.52,3.06,3.06,0,0,0-.7.78,1.65,1.65,0,0,0-.28.92.72.72,0,0,0,.16.47,4,4,0,0,0,.33.37H91.29a.75.75,0,0,1-.26-.22.94.94,0,0,1-.08-.38L90.88,12l-.63-.47V13.1c0,.24,0,.47,0,.69s0,.44,0,.65a4.69,4.69,0,0,0-.47-.63,3.17,3.17,0,0,0-.57-.53,2.82,2.82,0,0,0-.67-.34,2.19,2.19,0,0,0-.75-.13A2.61,2.61,0,0,0,87,13a4.34,4.34,0,0,0-1,.45,3,3,0,0,0-.76.69A1.32,1.32,0,0,0,85,15a.61.61,0,0,0,.06.25,1,1,0,0,0,.15.24.87.87,0,0,0,.22.17.47.47,0,0,0,.25.07.69.69,0,0,0,.26-.06l.12-.05.12-.05.21-.08a.72.72,0,0,1,.19,0,.24.24,0,0,1,.17.06.4.4,0,0,1,.1.15c0,.05,0,.11,0,.18s0,.13,0,.19a.41.41,0,0,1-.07.23l-.15.24-.12.11-.12.11-.13.14-.24.25,1.3.5,2.3-2.4a3.11,3.11,0,0,1,.2.25c.07.11.13.22.19.33a2.63,2.63,0,0,1,.15.35.83.83,0,0,1,.06.27V17c0,.17,0,.36,0,.58s0,.45,0,.67,0,.41,0,.63a1.57,1.57,0,0,0-.4-.29,3.13,3.13,0,0,0-.83-.33,6.47,6.47,0,0,0-.88-.15l-.9-.06-.8-.1a2.26,2.26,0,0,1-.62-.2,1,1,0,0,1-.4-.38,1.28,1.28,0,0,1-.14-.63.3.3,0,0,1,0-.13,1,1,0,0,1,.07-.21l-.65-.67a5.39,5.39,0,0,0-.11.84c0,.22,0,.43,0,.62a2.19,2.19,0,0,0,.19.94,2.22,2.22,0,0,0,.52.72,2.34,2.34,0,0,0,.76.46,2.44,2.44,0,0,0,.9.16l.88,0c.29,0,.58,0,.88,0a3.35,3.35,0,0,1,.71.06,1.16,1.16,0,0,1,.47.19,1.61,1.61,0,0,1,.32.36v0l.07.08c.09.15.2.32.31.53l.09.16.11.2.18.26a2.9,2.9,0,0,0,.34.31V20.5l-.05-.12V13.7H92.7v6.23a.27.27,0,0,0,0,.15l.06.07,0,0,0,0a1.36,1.36,0,0,1,.12.12l.13.12.16.16.2.19.24.23V13.7h9.1l.25,0,.24,0c.3.07.45.21.46.42a.8.8,0,0,0-.65.39,1.32,1.32,0,0,0-.18.71,1.34,1.34,0,0,0,.06.4,1.11,1.11,0,0,0,.18.36,1.2,1.2,0,0,0,.29.26.92.92,0,0,0,.41.1,1,1,0,0,0,.37-.08,1.06,1.06,0,0,0,.31-.21,1.16,1.16,0,0,0,.22-.31,1.08,1.08,0,0,0,.11-.36.53.53,0,0,1,.37,0,.69.69,0,0,1,.35.2.83.83,0,0,1,.23.37.66.66,0,0,1,0,.44,1.24,1.24,0,0,0-.43,0,1.28,1.28,0,0,0-.38.21.93.93,0,0,0-.28.34,1,1,0,0,0-.1.47,1.1,1.1,0,0,0,.26.77,1,1,0,0,0,.77.28,1.21,1.21,0,0,0,.6-.15,1,1,0,0,0,.4-.47,2,2,0,0,1,.76.69,5.87,5.87,0,0,1,.46.94c.05.13.09.26.13.39s.09.27.14.41.1.14.16.23a2.7,2.7,0,0,1,.18.25l.23.3V15.7a2.12,2.12,0,0,1,.47,0,1.87,1.87,0,0,1,.85.16.52.52,0,0,1,.32.53.77.77,0,0,0-.4-.18l-.41,0a.38.38,0,0,0-.25.09.65.65,0,0,0-.19.21.84.84,0,0,0-.13.27,1,1,0,0,0,0,.3.8.8,0,0,0,.3.59,1.37,1.37,0,0,0,.91.25.9.9,0,0,0,.48-.13.92.92,0,0,0,.33-.32,1.57,1.57,0,0,0,.18-.42,1.86,1.86,0,0,0,.06-.45,1.91,1.91,0,0,0-.21-.89,2.16,2.16,0,0,0-1.37-1.06,2.26,2.26,0,0,0-.9-.06v-.8h3.36a2.1,2.1,0,0,0-.24.5,2.84,2.84,0,0,0-.16,1,2.31,2.31,0,0,0,.15.83,2,2,0,0,0,.41.7,1.89,1.89,0,0,0,.63.48,1.83,1.83,0,0,0,.82.18,1.53,1.53,0,0,0,.45-.08,1.37,1.37,0,0,0,.44-.21,1.19,1.19,0,0,0,.33-.34.88.88,0,0,0,.13-.49,1,1,0,0,0-.08-.39,1.38,1.38,0,0,0-.2-.33,1.19,1.19,0,0,0-.31-.23.92.92,0,0,0-.38-.08,1,1,0,0,0-.55.15.58.58,0,0,0-.25.55.57.57,0,0,0,0,.13v.14a.39.39,0,0,1-.18-.18,1.39,1.39,0,0,1-.12-.28c0-.1,0-.2,0-.3a1.28,1.28,0,0,1,0-.26,1.12,1.12,0,0,1,.09-.44,1.73,1.73,0,0,1,.25-.39,1.41,1.41,0,0,1,.37-.27A1,1,0,0,1,114,14a1.24,1.24,0,0,1,.67.19,2,2,0,0,1,.53.47,2.11,2.11,0,0,1,.36.66,2,2,0,0,1,.13.72v4a.86.86,0,0,0,.13.14l.28.29a1,1,0,0,0,.12.15l.11.13.07.05a.28.28,0,0,0,.13,0s0-.07,0-.15l.15.16v-7h1.76ZM87.61,15.5a1.43,1.43,0,0,0-.3-.65,1,1,0,0,0-.59-.36A1.51,1.51,0,0,1,88,13.87a1.15,1.15,0,0,1,.84.36Zm20.13,2.2a2.77,2.77,0,0,0-.8-.8,2.41,2.41,0,0,0-.44-1.31,3.46,3.46,0,0,0-.82-.84,3.08,3.08,0,0,0-.44-.27l-.38-.2-.27-.1h0a1.22,1.22,0,0,1-.1-.24,2.44,2.44,0,0,0-.1-.24h1.32a2.29,2.29,0,0,0,.25.75,2.42,2.42,0,0,0,.47.62,2.52,2.52,0,0,0,.62.45,2.35,2.35,0,0,0,.72.24Zm0-3-.13,0-.14,0a2.41,2.41,0,0,1-.43-.14,1,1,0,0,1-.31-.25.68.68,0,0,1-.12-.44.23.23,0,0,0,0-.09s0-.06,0-.06h1.13Z"/><path class="cls-1" d="M119.41,19a1,1,0,0,0-.66.26.88.88,0,0,0-.28.68,1,1,0,0,0,.25.7.9.9,0,0,0,.69.27,1,1,0,0,0,.67-.25.87.87,0,0,0,.28-.68,1,1,0,0,0-.25-.72A.94.94,0,0,0,119.41,19Z"/><path class="cls-1" d="M122.69,19a1,1,0,0,0-.67.26.92.92,0,0,0-.28.68,1,1,0,0,0,.25.7.91.91,0,0,0,.7.27,1,1,0,0,0,.66-.25.88.88,0,0,0,.29-.68,1,1,0,0,0-.25-.72A.94.94,0,0,0,122.69,19Z"/><path class="cls-1" d="M126.66,19.27A.92.92,0,0,0,126,19a1,1,0,0,0-.67.26A.88.88,0,0,0,125,20a1,1,0,0,0,.25.7.91.91,0,0,0,.7.27,1,1,0,0,0,.66-.25.87.87,0,0,0,.28-.68A1,1,0,0,0,126.66,19.27Z"/><path class="cls-1" d="M208.09,22.83l-9-8.74q9.51-2.85,19-12l7.17,5.46Q215.35,19.77,208.09,22.83Z"/><path d="M63.11,22.79H14.94V6.9c0-1.36.31-2,.94-2H38.39c.52.07.77.51.77,1.32v4.19H50.53V4.58Q50.53,0,45.45,0H9.65Q3.57,0,3.58,4.86v7.69h0V22.79H0v5.06H3.57V72H14.94V27.85h6.18v20l11.37,2.49V45.85q6.18-7,11.42-7.45a11.16,11.16,0,0,0-3.86,8.94,8.26,8.26,0,0,0,2.23,5.79,16.1,16.1,0,0,0,6.54,4l10.09-5.62q-7.5-.55-7.5-4.91a7.07,7.07,0,0,1,2.51-5.38,10.13,10.13,0,0,1,3.34-1.85,14.62,14.62,0,0,1,4.85-.72l-7.77-7.17a7.05,7.05,0,0,0-2.27-1.35,8.4,8.4,0,0,0-3-.47q-8.76,0-16.6,6.51V27.86H84.73v.66q-5.3,4-18,7.29v15.5q0,5,6.12,5.79H96.1V34.65h.61c3.53,0,5.29,1.3,5.29,3.92s-1,3.91-3.14,3.91h-.33v6.13h7.17q7.67,0,7.67-4.75V34.48q0-4.63-17.27-6v-.66H117V22.79H63.11ZM84.73,50.43c0,1.29-1,2-3.14,2-2.32,0-3.48-.82-3.48-2.48V37.79a36,36,0,0,0,6.62-3Z"/><path d="M127.49,27.86h3.64v20l11.37,2.49V45.85q6.18-7,11.42-7.45a11.16,11.16,0,0,0-3.86,8.94,8.26,8.26,0,0,0,2.23,5.79,16.1,16.1,0,0,0,6.54,4l10.1-5.62q-7.52-.55-7.51-4.91a7.07,7.07,0,0,1,2.51-5.38,10.13,10.13,0,0,1,3.34-1.85,14.64,14.64,0,0,1,4.86-.72l-7.78-7.17a7,7,0,0,0-2.26-1.35,8.44,8.44,0,0,0-3-.47q-8.78,0-16.61,6.51V27.86h31.72V22.79H127.49Z"/><path d="M202.58,27.09q-3.09-4.31-7.17-4.3h-14q-4.69,0-4.69,3.91v9.44q0,4.08,4.36,4.08h4.36q3.09,0,3.09,2.43v.61l-11.81,3.91V55.5L202.58,47V57.1H214V27.86h3.64V22.79h-15Zm0,12.25L200,40q-.83-4.41-3.86-4.41h-4.75c-2.17,0-3.25-.59-3.25-1.77v-2c0-1.84.49-2.76,1.49-2.76q10.69,0,13,7.28Z"/><path d="M258.12,22.79h-3.67V12.55H242.79V25.29c-1.18-1.67-2.33-2.5-3.44-2.5H224.08c-2.64,0-4,1.73-4,5.18V43.48c0,3.12,1.64,4.69,4.8,4.69h12v-7h-3.4c-1.2,0-1.81-.46-1.81-1.38V33c0-2,1.83-3,5.49-3a6.89,6.89,0,0,1,4.13,1,3.44,3.44,0,0,1,1.35,2.9V57.1h0V72h11.66V27.86h3.67Z"/><rect class="cls-1" x="21.32" y="59.6" width="215.48" height="12.4"/><path class="cls-2" d="M28.28,68.59,24.74,63h2.88l2.1,3.68L31.64,63h2.85l1.86,3.68L38.49,63H41.4l-3.59,5.61H35L33.05,65l-1.89,3.61Z"/><path class="cls-2" d="M45.06,68.59,41.52,63H44.4l2.09,3.68L48.42,63h2.84l1.86,3.68L55.26,63h2.92l-3.59,5.61H51.75L49.82,65l-1.89,3.61Z"/><path class="cls-2" d="M61.84,68.59,58.29,63h2.88l2.1,3.68L65.19,63H68l1.86,3.68L72,63H75l-3.6,5.61H68.52L66.6,65l-1.89,3.61Z"/><path class="cls-2" d="M75.7,68.59V67.11h3v1.48Z"/><path class="cls-2" d="M92,68.59H89.22v-.82a5,5,0,0,1-1.62.72,7.44,7.44,0,0,1-1.87.24,6.55,6.55,0,0,1-3.3-.78,2.41,2.41,0,0,1-1.38-2.19,2.36,2.36,0,0,1,1.34-2.17,6.81,6.81,0,0,1,3.37-.75,6.41,6.41,0,0,1,3.23.78V60.86h3ZM84.1,65.68A1.61,1.61,0,0,0,84.59,67a3.1,3.1,0,0,0,2,.59,3.22,3.22,0,0,0,1.74-.45A1.45,1.45,0,0,0,89,65.83a1.52,1.52,0,0,0-.69-1.41A3.33,3.33,0,0,0,86.57,64a3.4,3.4,0,0,0-1.76.42A1.4,1.4,0,0,0,84.1,65.68Z"/><path class="cls-2" d="M94.89,62.23V60.86h3v1.37Zm0,6.36V63h3v5.61Z"/><path class="cls-2" d="M100.76,68.59V60.86h3V65l3.47-2h3.63L107,65l4.1,3.56h-3.2l-2.81-2.53-1.37.73v1.8Z"/><path class="cls-2" d="M123.12,68.59h-2.74v-.82a4.94,4.94,0,0,1-1.61.72,7.57,7.57,0,0,1-1.88.24,6.55,6.55,0,0,1-3.3-.78,2.4,2.4,0,0,1-1.37-2.19,2.35,2.35,0,0,1,1.33-2.17,6.81,6.81,0,0,1,3.37-.75,6.41,6.41,0,0,1,3.23.78V60.86h3Zm-7.86-2.91a1.61,1.61,0,0,0,.5,1.32,3,3,0,0,0,2,.59,3.22,3.22,0,0,0,1.74-.45,1.45,1.45,0,0,0,.71-1.31,1.52,1.52,0,0,0-.69-1.41,3.31,3.31,0,0,0-1.78-.43,3.4,3.4,0,0,0-1.76.42A1.4,1.4,0,0,0,115.26,65.68Z"/><path class="cls-2" d="M128.23,64.68l-2.66-.25a2.71,2.71,0,0,1,1.57-1.2,10.55,10.55,0,0,1,3.3-.39,13.43,13.43,0,0,1,3,.24,3.09,3.09,0,0,1,1.37.6,1.73,1.73,0,0,1,.4,1.33l0,1.73a3,3,0,0,0,.14,1.1,2.55,2.55,0,0,0,.52.75h-2.92c-.07-.1-.17-.24-.28-.43l-.11-.17a7.12,7.12,0,0,1-1.63.56,9,9,0,0,1-1.85.18,6.6,6.6,0,0,1-2.73-.47c-.66-.32-1-.71-1-1.19a1.07,1.07,0,0,1,.46-.85,3.12,3.12,0,0,1,1.27-.57,17.09,17.09,0,0,1,2.37-.35c1.39-.13,2.35-.25,2.89-.36v-.15a.63.63,0,0,0-.43-.62,4.75,4.75,0,0,0-1.61-.18,4.08,4.08,0,0,0-1.25.15A1.51,1.51,0,0,0,128.23,64.68Zm4,1.2c-.38.07-1,.15-1.81.24a9.47,9.47,0,0,0-1.63.26c-.38.14-.58.32-.58.53s.16.4.47.56a2.71,2.71,0,0,0,1.19.23,4.36,4.36,0,0,0,1.53-.27,1.36,1.36,0,0,0,.71-.5,1.57,1.57,0,0,0,.12-.74Z"/><path class="cls-2" d="M140.89,68.59h-3V63h2.74v.8a4.17,4.17,0,0,1,1.27-.75,4,4,0,0,1,1.28-.19,7.09,7.09,0,0,1,2,.28l-.91,1.3a4.57,4.57,0,0,0-1.39-.24,3,3,0,0,0-1.05.17,1.36,1.36,0,0,0-.68.62,4.51,4.51,0,0,0-.25,1.89Z"/><path class="cls-2" d="M146.34,63h2.77v.82a4.26,4.26,0,0,1,1.45-.69,7.2,7.2,0,0,1,2-.27,6.67,6.67,0,0,1,3.31.77,2.36,2.36,0,0,1,1.36,2.14A2.44,2.44,0,0,1,155.9,68a6.6,6.6,0,0,1-3.32.78,6.19,6.19,0,0,1-3.27-.82v2.83h-3Zm2.92,2.7A1.55,1.55,0,0,0,150,67.1a3.44,3.44,0,0,0,1.82.46,3.21,3.21,0,0,0,1.71-.42,1.51,1.51,0,0,0,.69-1.39,1.47,1.47,0,0,0-.71-1.33,3.27,3.27,0,0,0-1.75-.43,3.53,3.53,0,0,0-1.8.42A1.4,1.4,0,0,0,149.26,65.68Z"/><path class="cls-2" d="M158.93,65.71a2,2,0,0,1,.72-1.44,4.76,4.76,0,0,1,2.06-1.06,10.87,10.87,0,0,1,3-.37,9.15,9.15,0,0,1,4.15.83q1.62.84,1.62,2.1c0,.85-.55,1.56-1.64,2.12a9,9,0,0,1-4.11.84,12.12,12.12,0,0,1-2.93-.35,4.78,4.78,0,0,1-2.12-1A2.17,2.17,0,0,1,158.93,65.71Zm3,.08a1.41,1.41,0,0,0,.79,1.29,4.36,4.36,0,0,0,3.86,0,1.47,1.47,0,0,0,0-2.59,4.36,4.36,0,0,0-3.86,0A1.41,1.41,0,0,0,162,65.79Z"/><path class="cls-2" d="M182.93,68.59h-3V65.73a2.31,2.31,0,0,0-.19-1.18,1.19,1.19,0,0,0-.61-.42,3.35,3.35,0,0,0-1-.14,4.15,4.15,0,0,0-1.37.21,1.54,1.54,0,0,0-.83.56,2.56,2.56,0,0,0-.23,1.29v2.54h-3V63h2.74v.82a6.62,6.62,0,0,1,3.69-1A8.28,8.28,0,0,1,181,63a3.89,3.89,0,0,1,1.23.45,1.63,1.63,0,0,1,.58.63,2.57,2.57,0,0,1,.16,1Z"/><path class="cls-2" d="M185.94,68.59V67.11h3v1.48Z"/><path class="cls-2" d="M201.71,64.6l-2.92.25a1.08,1.08,0,0,0-.67-.65,3.64,3.64,0,0,0-1.35-.21,3.47,3.47,0,0,0-1.77.39,1.39,1.39,0,0,0-.66,1.3,1.55,1.55,0,0,0,.67,1.43,3.38,3.38,0,0,0,1.8.42,3.24,3.24,0,0,0,1.38-.25,1.41,1.41,0,0,0,.76-.84l2.92.25a3,3,0,0,1-1.75,1.52,9.25,9.25,0,0,1-3.44.52,8.34,8.34,0,0,1-3.92-.78,2.33,2.33,0,0,1,0-4.33,8.51,8.51,0,0,1,4-.78,9.86,9.86,0,0,1,3.25.44A3.17,3.17,0,0,1,201.71,64.6Z"/><path class="cls-2" d="M203.26,65.71a2,2,0,0,1,.73-1.44,4.72,4.72,0,0,1,2-1.06,11,11,0,0,1,3-.37,9.12,9.12,0,0,1,4.15.83q1.62.84,1.62,2.1a2.46,2.46,0,0,1-1.63,2.12,9,9,0,0,1-4.12.84,12.1,12.1,0,0,1-2.92-.35,4.72,4.72,0,0,1-2.12-1A2.18,2.18,0,0,1,203.26,65.71Zm3.05.08a1.42,1.42,0,0,0,.78,1.29,3.87,3.87,0,0,0,1.94.45,3.8,3.8,0,0,0,1.93-.45,1.47,1.47,0,0,0,0-2.59A3.8,3.8,0,0,0,209,64a3.87,3.87,0,0,0-1.94.45A1.42,1.42,0,0,0,206.31,65.79Z"/><path class="cls-2" d="M216.9,63h2.74v.76a6.54,6.54,0,0,1,3.49-.9,6.83,6.83,0,0,1,1.87.23,3.27,3.27,0,0,1,1.3.67,5.89,5.89,0,0,1,1.59-.67,7.17,7.17,0,0,1,1.83-.23,7.74,7.74,0,0,1,2.08.25,2.68,2.68,0,0,1,1.28.74,1.82,1.82,0,0,1,.3,1.17v3.59h-3V65.38a1.42,1.42,0,0,0-.3-1.08,2.05,2.05,0,0,0-1.26-.31,3.46,3.46,0,0,0-1.17.19,1.48,1.48,0,0,0-.79.55,2.21,2.21,0,0,0-.24,1.16v2.7h-3V65.51a2.16,2.16,0,0,0-.16-1.05.93.93,0,0,0-.49-.36,3.05,3.05,0,0,0-.9-.11,4,4,0,0,0-1.24.18,1.46,1.46,0,0,0-.78.54,2.07,2.07,0,0,0-.24,1.15v2.73h-3Z"/></g></g></svg>