<svg xmlns="http://www.w3.org/2000/svg" viewBox="0 0 1189.05 331.67"><defs><style>.cls-1{fill:red;}.cls-2{fill:#fff;}</style></defs><title>Asset 1</title><g id="Layer_2" data-name="Layer 2"><g id="Layer_1-2" data-name="Layer 1"><path class="cls-1" d="M205.58,58.53l-.06-.07H98.21L100,60.28l1.24,1.27c.36.33.71.64,1,.91a5.83,5.83,0,0,0,.94.64,5.82,5.82,0,0,0,1.67,1.74,7.27,7.27,0,0,0,1.89.86,6.05,6.05,0,0,0,1,.22l1,.11.92.08.92.08a10.55,10.55,0,0,1,1.4.34,2.77,2.77,0,0,1,1.26.85,5.31,5.31,0,0,1,1,1.8,15,15,0,0,1,.62,3.14c-.22.3-.53.75-1,1.36s-.87,1.24-1.37,1.91-1,1.28-1.51,1.85-.93.85-1.29.85a1,1,0,0,1-.71-.41,5.52,5.52,0,0,1-.75-1.13,9.55,9.55,0,0,1-.67-1.66,9.7,9.7,0,0,1-.41-1.94l-3.45,3.43c.36.66.66,1.23.89,1.71s.46.92.67,1.33.45.81.71,1.21a10.8,10.8,0,0,0,.8,1.16,7.44,7.44,0,0,0,2.08,1.83,5.78,5.78,0,0,0,3,.72,3.67,3.67,0,0,0,1.81-.47,7.41,7.41,0,0,0,1.61-1.28A12.36,12.36,0,0,0,116.78,81c.45-.66.89-1.35,1.32-2,.18-.33.38-.66.59-1s.42-.64.6-.94a6.92,6.92,0,0,1,.59-.83c.21-.26.41-.51.59-.77A3.43,3.43,0,0,1,122.9,74a2.57,2.57,0,0,1,1.13.33,9.23,9.23,0,0,1,1.27.8,5.18,5.18,0,0,1,1,1,1.75,1.75,0,0,1,.41.94V92.38c.71.77,1.38,1.45,2,2a15.75,15.75,0,0,0,1.51,1.38,2.32,2.32,0,0,0,1,.61V63.1h10.51a32.63,32.63,0,0,0-4.23,7.26,21.12,21.12,0,0,0-1.65,8.32,21.57,21.57,0,0,0,.3,3.45,25.14,25.14,0,0,0,.89,3.67,19.57,19.57,0,0,0,1.54,3.51,14,14,0,0,0,2.21,3,10,10,0,0,0,2.91,2.07,8.64,8.64,0,0,0,3.69.77,6.69,6.69,0,0,0,2.35-.44,6.53,6.53,0,0,0,2-1.22,6,6,0,0,0,1.4-1.9,5.67,5.67,0,0,0,.54-2.46,4.85,4.85,0,0,0-.35-1.77,6,6,0,0,0-.95-1.6,5.18,5.18,0,0,0-1.4-1.19,3.51,3.51,0,0,0-1.78-.47,4.37,4.37,0,0,0-1.61.33,4.94,4.94,0,0,0-1.46.92,4.51,4.51,0,0,0-1.05,1.38,3.66,3.66,0,0,0-.41,1.68,4,4,0,0,0,.33,1.52,8.7,8.7,0,0,0,.75,1.46,4.15,4.15,0,0,1-2.07-1.29,10.4,10.4,0,0,1-1.62-2.38,12.71,12.71,0,0,1-1-2.87,12,12,0,0,1-.35-2.74,34.5,34.5,0,0,1,.48-5.91,17.22,17.22,0,0,1,1.67-5,13.8,13.8,0,0,1,3.16-4,17.37,17.37,0,0,1,4.87-3c.83-.29,1.68-.55,2.56-.77.21,0,.46-.08.68-.12q.74,2.56,1.72,5.62c.68,2.12,1.48,4.25,2.4,6.41a57.25,57.25,0,0,0,3.13,6.27A30.63,30.63,0,0,0,165.29,87,18.48,18.48,0,0,0,170,90.78a11.55,11.55,0,0,0,5.66,1.43,12.32,12.32,0,0,0,4.67-.88A12.58,12.58,0,0,0,187,85.06a13.46,13.46,0,0,0,1.26-4.78,15.11,15.11,0,0,0-.78-6.38,14.35,14.35,0,0,0-3-5,13.56,13.56,0,0,0-4.58-3.21,13.78,13.78,0,0,0-5.44-1.13,8.69,8.69,0,0,0-3,.53,8.29,8.29,0,0,0-2.62,1.52A7.92,7.92,0,0,0,167,69a6.48,6.48,0,0,0-.73,3.1,9.16,9.16,0,0,0,.38,2.67A6.07,6.07,0,0,0,167.77,77a5.74,5.74,0,0,0,1.91,1.49,6,6,0,0,0,2.64.55,6.18,6.18,0,0,0,4-1.27,5,5,0,0,0,1.57-4.09,8.92,8.92,0,0,0-.16-1.63,5.4,5.4,0,0,0-.6-1.57l.49-.09.48,0a4.36,4.36,0,0,1,2.21.66,7.63,7.63,0,0,1,2,1.71,7.91,7.91,0,0,1,1.41,2.43,6.49,6.49,0,0,1,.4,2.77,7.22,7.22,0,0,1-.94,2.84,9.37,9.37,0,0,1-2,2.38,10.47,10.47,0,0,1-2.61,1.65,6.75,6.75,0,0,1-2.78.64,10.7,10.7,0,0,1-4.5-.94,14.15,14.15,0,0,1-3.83-2.57,23.47,23.47,0,0,1-3.23-3.73,38.62,38.62,0,0,1-2.7-4.42c-.81-1.55-1.55-3.11-2.24-4.69s-1.31-3.1-1.88-4.53l-3-1.28a12.92,12.92,0,0,1,2.05-.16h40.64c-.18.26-.36.5-.54.74s-.36.49-.54.75c-.29.44-.56.87-.81,1.27a14.17,14.17,0,0,0-.7,1.27,14.62,14.62,0,0,0-1.11,2.79,12.85,12.85,0,0,0-.4,3.4,15,15,0,0,0,.38,3.4c.25,1.12.54,2.22.86,3.28.14.56.28,1.1.4,1.63s.25,1.06.36,1.58.19,1,.26,1.54a11.66,11.66,0,0,1,.11,1.55,12.06,12.06,0,0,1-.16,2.16,5.16,5.16,0,0,1-.57,1.6,6,6,0,0,1-1.05,1.35,17.66,17.66,0,0,1-1.56,1.36,3.1,3.1,0,0,1-.54.22,2.18,2.18,0,0,1-.51.14,1.74,1.74,0,0,0-.51.13,4.61,4.61,0,0,0-1.27.69,1.16,1.16,0,0,0-.51.86,1.84,1.84,0,0,0,.73,1.52,2.32,2.32,0,0,0,1.48.58,6.89,6.89,0,0,0,3.48-1,13.34,13.34,0,0,0,3.18-2.63A14.42,14.42,0,0,0,200,89.67a9.31,9.31,0,0,0,.92-3.92,27.85,27.85,0,0,0-.33-4.28c-.21-1.42-.47-2.83-.75-4.23s-.54-2.78-.76-4.14a27.09,27.09,0,0,1-.32-4.14,6.8,6.8,0,0,1,1.21-4.34,4.83,4.83,0,0,1,4-1.52h1l.07.07h19v.94a52,52,0,0,0-9.73,4.2,96.54,96.54,0,0,0-9.35,6l4.69,6.63a15.66,15.66,0,0,1,6.87,1.8,16.1,16.1,0,0,1,5.87,5.58c.45.72.88,1.43,1.27,2.12s.76,1.38,1.08,2,.65,1.24,1,1.8a8.63,8.63,0,0,0,1,1.13,2.72,2.72,0,0,0,.54.41l1.35.8V63.17h7.81l-4.58-4.64ZM126.73,71.88c-.44-.59-.94-1.21-1.51-1.88a14,14,0,0,0-1.84-1.65,3.49,3.49,0,0,0-2.15-.78,3.45,3.45,0,0,0-1.51.36,9.61,9.61,0,0,0-1.51.91,6.63,6.63,0,0,0-.89-3.17,10.53,10.53,0,0,0-2.18-2.57h11.59ZM224,84.75a22.92,22.92,0,0,0-4.5-5.19,26.38,26.38,0,0,0-5.8-3.7A45,45,0,0,1,224,70.34Z"/><path class="cls-1" d="M215.38,85.36a3.53,3.53,0,0,0-2.61,1.14,3.9,3.9,0,0,0-.75,4.33,4.57,4.57,0,0,0,.91,1.36,4.32,4.32,0,0,0,1.32.91,3.92,3.92,0,0,0,1.57.33,3.31,3.31,0,0,0,2.61-1.24,4.15,4.15,0,0,0,1-2.74,3.88,3.88,0,0,0-1.24-2.87A4,4,0,0,0,215.38,85.36Z"/><path class="cls-1" d="M344.74,58.46H321.45l-.64-.66a2.26,2.26,0,0,1-.43-.61,2.86,2.86,0,0,1-.27-.64,8.49,8.49,0,0,1-.22-1.3L317.14,53c.11,1.18.22,2.22.32,3.1s.2,1.66.28,2.32.14,1.23.21,1.71.14.92.22,1.33A6.42,6.42,0,0,0,316,59.2a5.7,5.7,0,0,0-2.49-.71l0,0h-1.84l-.94,0-1.54-.08.09.11H243.36l1.77,1.82,1.24,1.27c.36.33.71.64,1,.91a5.86,5.86,0,0,0,1,.64A5.7,5.7,0,0,0,250,64.84a7.27,7.27,0,0,0,1.89.86,6.05,6.05,0,0,0,1,.22l1,.11.92.08.91.08a9.84,9.84,0,0,1,1.4.34,2.8,2.8,0,0,1,1.27.85,5.31,5.31,0,0,1,1,1.8,14.42,14.42,0,0,1,.62,3.14c-.21.3-.53.75-.94,1.36s-.87,1.24-1.38,1.91-1,1.28-1.51,1.85-.93.85-1.29.85a1,1,0,0,1-.7-.41,5.51,5.51,0,0,1-.76-1.13,10.41,10.41,0,0,1-.67-1.66,9.68,9.68,0,0,1-.4-1.94l-3.45,3.43c.36.66.65,1.23.89,1.71s.45.92.67,1.33.45.81.7,1.21A10.87,10.87,0,0,0,252,82a7.26,7.26,0,0,0,2.07,1.83,5.79,5.79,0,0,0,3,.72,3.64,3.64,0,0,0,1.8-.47,7.22,7.22,0,0,0,1.62-1.28A13,13,0,0,0,261.92,81c.45-.66.89-1.35,1.33-2,.18-.33.37-.66.59-1s.41-.64.59-.94a8.27,8.27,0,0,1,.59-.83c.22-.26.42-.51.6-.77A3.41,3.41,0,0,1,268,74a2.53,2.53,0,0,1,1.13.33,8.17,8.17,0,0,1,1.27.8,5,5,0,0,1,1,1,1.72,1.72,0,0,1,.4.94V92.38c.72.77,1.38,1.45,2,2a15.68,15.68,0,0,0,1.5,1.38,2.38,2.38,0,0,0,1,.61V63.1h20.32v6.19a23.44,23.44,0,0,0-1.7-2.07,11.91,11.91,0,0,0-2-1.72,9.58,9.58,0,0,0-2.4-1.18,9.25,9.25,0,0,0-3-.45,6.92,6.92,0,0,0-2.88.58,6,6,0,0,0-2.13,1.6,7.18,7.18,0,0,0-1.32,2.38,8.9,8.9,0,0,0-.46,2.9,3.54,3.54,0,0,0,.43,1.77,4.54,4.54,0,0,0,1.1,1.32,5.17,5.17,0,0,0,1.49.86,4.38,4.38,0,0,0,1.61.31,4.43,4.43,0,0,0,1.51-.28,4.65,4.65,0,0,0,1.38-.8,4.15,4.15,0,0,0,1-1.25,3.26,3.26,0,0,0,.38-1.6,2,2,0,0,0-.16-.77c-.11-.26-.23-.53-.38-.83a1.41,1.41,0,0,1-.32-.55.22.22,0,0,1,0-.17c0-.18.18-.23.56-.13a4,4,0,0,0,.79.13,5.48,5.48,0,0,1,3.06,1,6.37,6.37,0,0,1,2.27,2.49q-2.85,1.77-5.82,3.53t-6.15,4l3.67,5a9.9,9.9,0,0,1,4.15.74,10.73,10.73,0,0,1,3.31,2.21A11.24,11.24,0,0,1,297,91.74a14.34,14.34,0,0,1,1.16,4.17c.43.33.85.63,1.24.89a11.63,11.63,0,0,0,1,.61,2,2,0,0,0,.8.27V76.75c.58-.3,1.22-.61,1.94-.94a8.54,8.54,0,0,1,2-.67V90.67a2.27,2.27,0,0,0,.56,1.29,12.8,12.8,0,0,0,1.46,1.58c.59.55,1.24,1.09,1.94,1.63a23.39,23.39,0,0,0,2,1.35,40.93,40.93,0,0,1-1.19-6.79c-.14-2-.21-3.85-.21-5.69,0-2,0-3.92.13-5.8s.23-3.82.41-5.8a2.31,2.31,0,0,0-.38-1.47,3.67,3.67,0,0,0-1.13-1,6.73,6.73,0,0,0-1.49-.63,5.13,5.13,0,0,0-1.42-.22,7.84,7.84,0,0,0-1.59.14,6.7,6.7,0,0,0-1.38.41l-.81.33q-.37.17-.81.39V63.1H313l0,.06c1.69-.22,2.85.18,3.48,1.21a8.55,8.55,0,0,1,.94,4.42V93.48c.68.71,1.33,1.33,1.94,1.88a19.41,19.41,0,0,0,1.51,1.3,2.25,2.25,0,0,0,1.08.58V63.1h11.53a33.43,33.43,0,0,0-4.23,7.26,21.29,21.29,0,0,0-1.64,8.32,22.71,22.71,0,0,0,.29,3.45,25.14,25.14,0,0,0,.89,3.67,19.57,19.57,0,0,0,1.54,3.51,14,14,0,0,0,2.21,3,10.29,10.29,0,0,0,2.91,2.07,8.67,8.67,0,0,0,3.69.77,6.65,6.65,0,0,0,2.35-.44,6.53,6.53,0,0,0,2-1.22,6,6,0,0,0,1.4-1.9,5.67,5.67,0,0,0,.54-2.46,4.85,4.85,0,0,0-.35-1.77,6.24,6.24,0,0,0-.94-1.6,5.5,5.5,0,0,0-1.4-1.19,3.56,3.56,0,0,0-1.78-.47,4.46,4.46,0,0,0-1.62.33,4.94,4.94,0,0,0-1.46.92,4.51,4.51,0,0,0-1.05,1.38,3.65,3.65,0,0,0-.4,1.68,4,4,0,0,0,.32,1.52,8.73,8.73,0,0,0,.76,1.46,4.13,4.13,0,0,1-2.08-1.29,10.4,10.4,0,0,1-1.62-2.38,12.71,12.71,0,0,1-1-2.87,12,12,0,0,1-.35-2.74,34.5,34.5,0,0,1,.48-5.91,17.53,17.53,0,0,1,1.68-5,13.94,13.94,0,0,1,3.15-4,17.43,17.43,0,0,1,4.88-3c.82-.29,1.68-.55,2.56-.77a12.58,12.58,0,0,1,3-.33H366.1V76.91a30.43,30.43,0,0,0-1.94-3,17.12,17.12,0,0,0-2.4-2.68,11.14,11.14,0,0,0-2.94-1.9,8.61,8.61,0,0,0-3.56-.72,8.82,8.82,0,0,0-3.2.58,8.6,8.6,0,0,0-2.68,1.63,7.55,7.55,0,0,0-2.51,5.8,7,7,0,0,0,1.76,5.11,6.67,6.67,0,0,0,5,1.8,5.59,5.59,0,0,0,3.52-1.17,4.16,4.16,0,0,0,1.51-3.53,6.15,6.15,0,0,0-.7-2.93,6.39,6.39,0,0,0-.29-.61,4.51,4.51,0,0,0-.41-.6.39.39,0,0,0-.08-.14,1.09,1.09,0,0,1-.08-.14,6,6,0,0,1,3.1,1.16,11.73,11.73,0,0,1,2.69,2.71A22.63,22.63,0,0,1,365.08,82a41.21,41.21,0,0,1,1.67,4.2,28.67,28.67,0,0,1,1.05,4.12,21.1,21.1,0,0,1,.35,3.54v.44a3.26,3.26,0,0,1-.11.66l2.59,3.48V63.1h8l-4.69-4.64ZM271.87,71.88c-.43-.59-.93-1.21-1.51-1.88a13.91,13.91,0,0,0-1.83-1.65,3.37,3.37,0,0,0-3.67-.42,10.62,10.62,0,0,0-1.51.91,6.42,6.42,0,0,0-.89-3.17,10.11,10.11,0,0,0-2.18-2.57h11.59Zm24.85,14.2a21.59,21.59,0,0,0-5-4.25c.83-.52,1.66-1,2.48-1.58s1.67-1,2.54-1.52Z"/><path class="cls-1" d="M440.21,75.34a59.09,59.09,0,0,0,3.13,6.27A31.15,31.15,0,0,0,447.22,87a18.36,18.36,0,0,0,4.72,3.79,11.55,11.55,0,0,0,5.66,1.43,12.26,12.26,0,0,0,8.54-3.37,12.63,12.63,0,0,0,2.76-3.78,13.67,13.67,0,0,0,1.26-4.78,15.11,15.11,0,0,0-.78-6.38,14.35,14.35,0,0,0-3-5,13.6,13.6,0,0,0-4.59-3.21,13.74,13.74,0,0,0-5.44-1.13,8.64,8.64,0,0,0-3,.53A8.19,8.19,0,0,0,448.89,69a6.59,6.59,0,0,0-.72,3.1,9.17,9.17,0,0,0,.37,2.67A6.22,6.22,0,0,0,449.7,77a5.78,5.78,0,0,0,1.92,1.49,5.9,5.9,0,0,0,2.64.55,6.18,6.18,0,0,0,4-1.27,5,5,0,0,0,1.56-4.09A8.12,8.12,0,0,0,459.7,72a5.1,5.1,0,0,0-.59-1.57l.49-.09.48,0a4.39,4.39,0,0,1,2.21.66,7.79,7.79,0,0,1,2,1.71,8.09,8.09,0,0,1,1.4,2.43,6.5,6.5,0,0,1,.41,2.77,7.24,7.24,0,0,1-.95,2.84,9.33,9.33,0,0,1-2,2.38,10.53,10.53,0,0,1-2.62,1.65,6.71,6.71,0,0,1-2.77.64,10.78,10.78,0,0,1-4.51-.94,14.25,14.25,0,0,1-3.82-2.57,24,24,0,0,1-3.24-3.73,38.55,38.55,0,0,1-2.69-4.42q-1.21-2.33-2.24-4.69t-1.89-4.53L436,63.1q.75,2.66,1.78,5.83C438.5,71.05,439.3,73.18,440.21,75.34Z"/><path class="cls-1" d="M541.25,58.5h-2.37a10.21,10.21,0,0,1-1.46-1.27,5.19,5.19,0,0,1-.7-1,6.8,6.8,0,0,1-.32-.61,6.73,6.73,0,0,0-.43-.71q-.12-.16-.27-.42a5.44,5.44,0,0,0-.46-.58l-.76-.85c-.3-.35-.69-.79-1.15-1.3,0,.74,0,1.58,0,2.54s.08,1.93.13,2.93.1,2,.14,2.93.09,1.78.16,2.48l.22,2.88a17.67,17.67,0,0,0-1.54-2.66,13.15,13.15,0,0,0-2-2.26A9.21,9.21,0,0,0,528,59a7.06,7.06,0,0,0-3-.61,10.55,10.55,0,0,0-4.5.91,9.81,9.81,0,0,0-3.32,2.48h0L514,58.51H472.05l-.06,0H430.22a4.75,4.75,0,0,1-.22-.53,3.38,3.38,0,0,0-.27-.58,4.81,4.81,0,0,0-.32-.74,1.06,1.06,0,0,1-.16-.42,6.11,6.11,0,0,1,.29-.88,9.14,9.14,0,0,1,1-1.8,14.35,14.35,0,0,1,1.81-2.1,9.25,9.25,0,0,1,2.72-1.79,11.18,11.18,0,0,1,3.8-.86,14.63,14.63,0,0,1,5,.67,28.88,28.88,0,0,1,6.25,2.79,52.61,52.61,0,0,1,7.68,5.52l-1.5-4.53a51.27,51.27,0,0,0-4.13-3.78,29.19,29.19,0,0,0-4.61-3.12,24.36,24.36,0,0,0-5.09-2.1,19.6,19.6,0,0,0-5.53-.78,11.16,11.16,0,0,0-4.12.91,17.17,17.17,0,0,0-4.15,2.43,14.34,14.34,0,0,0-3.21,3.57,7.85,7.85,0,0,0-1.29,4.25,3.47,3.47,0,0,0,.72,2.16,17,17,0,0,0,1.54,1.71h-5.87a3.43,3.43,0,0,1-1.19-1A4.68,4.68,0,0,1,419,55.7l-.33-.61-2.91-2.16v4c0,1.22,0,2.37,0,3.46s0,2.13.08,3.14.09,2,.16,3a19.27,19.27,0,0,0-2.13-2.92,16.17,16.17,0,0,0-2.64-2.41,12.15,12.15,0,0,0-3.1-1.6,10.59,10.59,0,0,0-3.45-.58,12.61,12.61,0,0,0-3.83.75,19.32,19.32,0,0,0-4.33,2.07A14.09,14.09,0,0,0,393,65a6.1,6.1,0,0,0-1.46,3.92,2.83,2.83,0,0,0,.27,1.16,4.43,4.43,0,0,0,.7,1.11,3.5,3.5,0,0,0,1,.8,2.42,2.42,0,0,0,1.16.3,3,3,0,0,0,1.18-.28l.57-.22.56-.22c.33-.14.64-.27,1-.38a2.6,2.6,0,0,1,.89-.17,1.08,1.08,0,0,1,.78.28,1.55,1.55,0,0,1,.43.66,4.19,4.19,0,0,1,.19.86c0,.31.05.59.05.85a2,2,0,0,1-.3,1c-.19.33-.44.7-.72,1.11-.18.18-.36.36-.54.52s-.36.34-.54.53l-.62.63-1.1,1.13,6,2.32,10.62-11a9.81,9.81,0,0,1,.91,1.16,13.44,13.44,0,0,1,.89,1.52,13.2,13.2,0,0,1,.68,1.58,4.07,4.07,0,0,1,.27,1.27v2.73c0,.8,0,1.7,0,2.71s-.05,2-.08,3.07-.06,1.89-.08,2.89a9.37,9.37,0,0,0-1.84-1.35A16.14,16.14,0,0,0,410,84a27.67,27.67,0,0,0-4.07-.69c-1.38-.13-2.76-.23-4.12-.3s-2.6-.26-3.7-.44a9.55,9.55,0,0,1-2.85-.92,4.47,4.47,0,0,1-1.86-1.74A5.76,5.76,0,0,1,392.7,77a2.76,2.76,0,0,1,.08-.6,6.6,6.6,0,0,1,.35-.94l-3-3.1a33.48,33.48,0,0,0-.51,3.87c-.05,1-.08,2-.08,2.88a10.14,10.14,0,0,0,3.29,7.62,10.94,10.94,0,0,0,3.47,2.13,11.9,11.9,0,0,0,4.18.74c1.33,0,2.67,0,4-.14s2.7-.13,4.07-.13a17.11,17.11,0,0,1,3.29.25,5.13,5.13,0,0,1,2.13.91,6.38,6.38,0,0,1,1.49,1.66v.16l.34.35c.42.69.89,1.51,1.44,2.47a4.71,4.71,0,0,0,.38.71c.18.3.36.61.53.94a13.51,13.51,0,0,0,.84,1.19,8.61,8.61,0,0,0,1.54,1.41V94.42c-.07-.2-.15-.38-.22-.56V63.1H427V91.83a.87.87,0,0,0,0,.66,1.76,1.76,0,0,0,.27.33.55.55,0,0,0,.14.19,1.7,1.7,0,0,0,.19.2,6.4,6.4,0,0,1,.53.52,5.48,5.48,0,0,0,.6.58q.27.28.75.72c.33.3.63.59.92.88s.72.69,1.08,1V63.1h39.67l.05,0h2.21l1.16.12a10,10,0,0,1,1.1.16c1.37.33,2.07,1,2.1,1.93a3.67,3.67,0,0,0-3,1.8,6,6,0,0,0-.86,3.29,6.21,6.21,0,0,0,.29,1.85,5.59,5.59,0,0,0,.84,1.63,4.56,4.56,0,0,0,1.35,1.19,3.69,3.69,0,0,0,1.88.47,4,4,0,0,0,1.67-.36,4.7,4.7,0,0,0,1.43-1,5.23,5.23,0,0,0,1-1.41,5,5,0,0,0,.51-1.69,2.53,2.53,0,0,1,1.72-.16,3.46,3.46,0,0,1,1.62.91,4.25,4.25,0,0,1,1.05,1.69,3.16,3.16,0,0,1,0,2,5.64,5.64,0,0,0-2,.25,5.12,5.12,0,0,0-1.75.94,4.86,4.86,0,0,0-1.26,1.57,4.58,4.58,0,0,0-.49,2.16,4.92,4.92,0,0,0,1.24,3.56,4.59,4.59,0,0,0,3.5,1.3,5.33,5.33,0,0,0,2.78-.72,4.61,4.61,0,0,0,1.86-2.16,9.11,9.11,0,0,1,3.5,3.21A26.58,26.58,0,0,1,497,90.06c.21.59.42,1.19.62,1.8s.4,1.24.62,1.9l.75,1,.84,1.13q.45.65,1.05,1.41v-25a9.72,9.72,0,0,1,2.15-.21,9.23,9.23,0,0,1,3.94.71,2.4,2.4,0,0,1,1.45,2.43,3.62,3.62,0,0,0-1.86-.8,14.87,14.87,0,0,0-1.86-.14,1.84,1.84,0,0,0-1.15.39,3.6,3.6,0,0,0-.89,1,5,5,0,0,0-.6,1.27,3.52,3.52,0,0,0-.16,1.35A3.73,3.73,0,0,0,503.2,81a6.34,6.34,0,0,0,4.2,1.13,4.24,4.24,0,0,0,2.24-.58,4.72,4.72,0,0,0,1.51-1.47,6.49,6.49,0,0,0,.84-2,8.67,8.67,0,0,0-.73-6.13,9.68,9.68,0,0,0-2.62-3.09,10.57,10.57,0,0,0-7.81-2.07V63.15h15.45a11.67,11.67,0,0,0-1.09,2.31,13.62,13.62,0,0,0-.73,4.53,10.84,10.84,0,0,0,.67,3.81A10.09,10.09,0,0,0,517,77a9.18,9.18,0,0,0,2.91,2.2,8.45,8.45,0,0,0,3.8.83,7,7,0,0,0,2-.33,7.65,7.65,0,0,0,2-1,5.26,5.26,0,0,0,1.54-1.61,4.22,4.22,0,0,0,.59-2.23,4.77,4.77,0,0,0-.35-1.8,5.47,5.47,0,0,0-.94-1.52,4.64,4.64,0,0,0-1.4-1,4.21,4.21,0,0,0-1.78-.38,4.79,4.79,0,0,0-2.54.69,2.7,2.7,0,0,0-1.13,2.51c0,.22,0,.43,0,.64s0,.41,0,.63a1.89,1.89,0,0,1-.83-.83,5,5,0,0,1-.54-1.3,8.41,8.41,0,0,1-.27-1.38,9.11,9.11,0,0,1-.08-1.19,5,5,0,0,1,.43-2,6.16,6.16,0,0,1,1.16-1.77,5.82,5.82,0,0,1,1.67-1.24,4.39,4.39,0,0,1,2-.47,5.83,5.83,0,0,1,3,.86,9.21,9.21,0,0,1,2.48,2.18,10.45,10.45,0,0,1,1.65,3,10.14,10.14,0,0,1,.59,3.34l-.05,18.29a8.76,8.76,0,0,0,.59.66l1.29,1.33a6.54,6.54,0,0,0,.57.69,6.42,6.42,0,0,1,.51.58,1.79,1.79,0,0,1,.33.25,1.2,1.2,0,0,0,.59-.15c.18-.09.18-.33,0-.7l.7.72V63.14h8.09ZM403.59,71.39a6.28,6.28,0,0,0-1.4-3,4.38,4.38,0,0,0-2.69-1.65,6.92,6.92,0,0,1,6-2.88,5.18,5.18,0,0,1,3.82,1.66ZM496.3,81.55a12.22,12.22,0,0,0-3.67-3.7,11.47,11.47,0,0,0-2-6,16.5,16.5,0,0,0-3.8-3.84,12.65,12.65,0,0,0-2-1.27c-.67-.33-1.25-.63-1.75-.89s-.85-.34-1.24-.49h-.11s-.05,0-.05,0a8,8,0,0,1-.46-1.1,10.43,10.43,0,0,0-.46-1.11h6.09A10.4,10.4,0,0,0,488,66.61a12.08,12.08,0,0,0,2.16,2.87A11.69,11.69,0,0,0,493,71.55a10.81,10.81,0,0,0,3.32,1.1Zm0-13.7-.59-.11-.65-.11a9.85,9.85,0,0,1-2-.66,4.22,4.22,0,0,1-1.41-1.14,3.19,3.19,0,0,1-.54-2,1.28,1.28,0,0,0-.13-.42c-.09-.2-.05-.3.13-.3h5.18Z"/><path class="cls-1" d="M550.09,87.57A4.32,4.32,0,0,0,547,88.79a4,4,0,0,0-1.3,3.09,4.54,4.54,0,0,0,1.16,3.26,4.22,4.22,0,0,0,3.21,1.22,4.48,4.48,0,0,0,3-1.16,3.94,3.94,0,0,0,1.32-3.1,4.6,4.6,0,0,0-1.15-3.31A4.25,4.25,0,0,0,550.09,87.57Z"/><path class="cls-1" d="M565.18,87.57a4.32,4.32,0,0,0-3.07,1.22,4,4,0,0,0-1.3,3.09A4.54,4.54,0,0,0,562,95.14a4.22,4.22,0,0,0,3.21,1.22,4.48,4.48,0,0,0,3-1.16,3.94,3.94,0,0,0,1.33-3.1,4.6,4.6,0,0,0-1.16-3.31A4.23,4.23,0,0,0,565.18,87.57Z"/><path class="cls-1" d="M583.48,88.79a4.22,4.22,0,0,0-3.21-1.22,4.32,4.32,0,0,0-3.07,1.22,4,4,0,0,0-1.3,3.09,4.54,4.54,0,0,0,1.16,3.26,4.22,4.22,0,0,0,3.21,1.22,4.52,4.52,0,0,0,3.05-1.16,3.94,3.94,0,0,0,1.32-3.1A4.6,4.6,0,0,0,583.48,88.79Z"/><path class="cls-1" d="M958.56,105.19l-41.33-40.3Q961,51.79,1004.71,9.78l33.07,25.14Q992,91.07,958.56,105.19Z"/><path d="M290.71,105H68.83V31.77q0-9.4,4.32-9.4h103.7q3.56.51,3.56,6.1V47.78h52.35V21.1Q232.76,0,209.38,0H44.43q-28,0-27.95,22.37V57.79h-.05V105H0v23.34H16.43V331.67h52.4V128.31H80.52v0H97.3v92l52.35,11.44V211.2q28.47-32.26,52.61-34.31-17.79,15.26-17.79,41.17a38.05,38.05,0,0,0,10.29,26.69q10.31,11.19,30.12,18.3l46.51-25.92q-34.56-2.55-34.56-22.62a32.54,32.54,0,0,1,11.56-24.78,46.66,46.66,0,0,1,15.38-8.52q9.39-3.3,22.36-3.3l-35.83-33a32.58,32.58,0,0,0-10.42-6.23,39.62,39.62,0,0,0-13.73-2.16q-40.41,0-76.5,30V128.35H390.33v3.05Q365.94,150,307.48,165v71.41q0,22.88,28.21,26.69h107V159.61h2.79q24.4,0,24.4,18t-14.48,18h-1.53v28.21h33q35.32,0,35.33-21.86v-43.2q0-21.36-79.55-27.45v-3.05H539V105H290.71ZM390.33,232.3q0,8.89-14.48,9.15-16,0-16-11.44V174.09q12.45-3.81,30.5-13.72Z"/><path d="M587.3,128.35h16.77v92l52.36,11.44V211.2q28.46-32.26,52.61-34.31-17.81,15.26-17.79,41.17a38.05,38.05,0,0,0,10.29,26.69q10.29,11.19,30.12,18.3l46.5-25.92q-34.56-2.55-34.56-22.62a32.63,32.63,0,0,1,11.56-24.78,46.66,46.66,0,0,1,15.38-8.52q9.4-3.3,22.37-3.3l-35.84-33a32.48,32.48,0,0,0-10.42-6.23,39.56,39.56,0,0,0-13.72-2.16q-40.41,0-76.5,30V128.35H802.56V105H587.3Z"/><path d="M933.2,124.79Q919,105,900.16,105h-64.3q-21.61,0-21.61,18v43.46q0,18.81,20.08,18.81h20.08q14.24,0,14.23,11.18v2.8l-54.39,18v38.38l119-39.14v46.51h52.35V128.35h16.78V105H933.2Zm0,56.42-12,3q-3.81-20.32-17.79-20.33H881.6q-15,0-15-8.13v-9.41q0-12.7,6.86-12.71,49.31,0,59.73,33.55Z"/><path d="M1189.05,105h-16.92V57.79h-53.7v58.7Q1110.24,105,1102.58,105h-70.33Q1014,105,1014,128.86v71.41q.26,21.61,22.14,21.61h55.47V189.6H1076q-8.34,0-8.34-6.35V152q0-13.71,25.27-13.72,12.75,0,19,4.7t6.25,13.34V263.05h.23v68.62h53.7V128.35h16.92Z"/><rect class="cls-1" x="98.21" y="274.55" width="992.63" height="57.12"/><path class="cls-2" d="M130.29,316,114,290.13h13.26l9.67,16.93,8.85-16.93h13.11l8.57,16.93,9.85-16.93h13.44L174.18,316H161.09l-8.86-16.61L143.52,316Z"/><path class="cls-2" d="M207.57,316l-16.32-25.83h13.26l9.67,16.93L223,290.13h13.11l8.58,16.93,9.84-16.93H268L251.46,316H238.37l-8.86-16.61L220.8,316Z"/><path class="cls-2" d="M284.85,316l-16.32-25.83h13.26l9.67,16.93,8.85-16.93h13.11L322,307.06l9.85-16.93h13.43L328.74,316H315.65l-8.86-16.61L298.08,316Z"/><path class="cls-2" d="M348.72,316v-6.81H362.4V316Z"/><path class="cls-2" d="M423.6,316H411v-3.78a22.81,22.81,0,0,1-7.44,3.32,34.89,34.89,0,0,1-8.65,1.1,30.25,30.25,0,0,1-15.2-3.6q-6.33-3.6-6.32-10.05t6.14-10q6.14-3.44,15.52-3.43a29.57,29.57,0,0,1,14.89,3.58V280.36H423.6Zm-36.19-13.4q0,4.2,2.27,6.06c2.2,1.81,5.26,2.71,9.2,2.71a14.87,14.87,0,0,0,8-2,6.66,6.66,0,0,0,3.29-6.07c0-3-1.06-5.17-3.19-6.49a17.74,17.74,0,0,0-16.29,0A6.37,6.37,0,0,0,387.41,302.56Z"/><path class="cls-2" d="M437.13,286.66v-6.3h13.68v6.3Zm0,29.3V290.13h13.68V316Z"/><path class="cls-2" d="M464.15,316v-35.6h13.67v18.87l16-9.1h16.74L493,299.56,511.84,316H497.1l-13-11.65-6.31,3.38V316Z"/><path class="cls-2" d="M567.15,316H554.54v-3.78a22.81,22.81,0,0,1-7.44,3.32,34.91,34.91,0,0,1-8.66,1.1,30.24,30.24,0,0,1-15.19-3.6q-6.33-3.6-6.32-10.05t6.14-10q6.13-3.44,15.52-3.43a29.6,29.6,0,0,1,14.89,3.58V280.36h13.67ZM531,302.56c0,2.8.75,4.82,2.27,6.06,2.2,1.81,5.26,2.71,9.2,2.71a14.9,14.9,0,0,0,8-2,6.68,6.68,0,0,0,3.29-6.07c0-3-1.06-5.17-3.19-6.49a15.33,15.33,0,0,0-8.19-2,15.52,15.52,0,0,0-8.11,2A6.38,6.38,0,0,0,531,302.56Z"/><path class="cls-2" d="M590.7,298l-12.26-1.16a12.62,12.62,0,0,1,7.21-5.53q5.13-1.8,15.21-1.79,9.17,0,13.65,1.08t6.31,2.76q1.83,1.67,1.83,6.13l-.23,8a14.59,14.59,0,0,0,.64,5,11.44,11.44,0,0,0,2.42,3.47H612a17.16,17.16,0,0,1-1.31-2,7.94,7.94,0,0,0-.49-.78,33.13,33.13,0,0,1-7.5,2.54,41.31,41.31,0,0,1-8.52.84q-8,0-12.59-2.17T577,309a5,5,0,0,1,2.1-3.91A14.61,14.61,0,0,1,585,302.4a84.19,84.19,0,0,1,10.9-1.59q9.6-.9,13.31-1.69v-.68a2.91,2.91,0,0,0-2-2.84c-1.31-.56-3.79-.85-7.43-.85a18.51,18.51,0,0,0-5.76.72A6.72,6.72,0,0,0,590.7,298Zm18.51,5.52q-2.64.45-8.35,1.07a44,44,0,0,0-7.47,1.22c-1.79.65-2.69,1.47-2.69,2.46s.72,1.83,2.15,2.54a12.31,12.31,0,0,0,5.47,1.07,20.44,20.44,0,0,0,7.08-1.24,6.15,6.15,0,0,0,3.28-2.32,7.44,7.44,0,0,0,.53-3.4Z"/><path class="cls-2" d="M649,316H635.35V290.13H648v3.66a19.65,19.65,0,0,1,5.86-3.45,18.84,18.84,0,0,1,5.9-.85,31.27,31.27,0,0,1,9,1.29l-4.18,6a21,21,0,0,0-6.4-1.11,13,13,0,0,0-4.84.79,6.07,6.07,0,0,0-3.13,2.86Q649,301.38,649,308Z"/><path class="cls-2" d="M674.13,290.13h12.73v3.78a19.88,19.88,0,0,1,6.71-3.18,33.12,33.12,0,0,1,9.38-1.24q9,0,15.25,3.54t6.27,9.87q0,6.5-6.31,10.1a30.43,30.43,0,0,1-15.3,3.6,32.9,32.9,0,0,1-7.74-.84,31.4,31.4,0,0,1-7.31-2.91v13H674.13Zm13.44,12.42a7.14,7.14,0,0,0,3.44,6.54,15.71,15.71,0,0,0,8.38,2.12,14.76,14.76,0,0,0,7.9-1.95q3.15-1.93,3.15-6.37a6.72,6.72,0,0,0-3.24-6.13,15,15,0,0,0-8.05-2,16,16,0,0,0-8.29,2A6.39,6.39,0,0,0,687.57,302.55Z"/><path class="cls-2" d="M732.1,302.68q0-3.42,3.35-6.62a21.87,21.87,0,0,1,9.46-4.89,51.67,51.67,0,0,1,13.68-1.68q11.65,0,19.12,3.82t7.45,9.66q0,5.89-7.52,9.76t-19,3.87A55.37,55.37,0,0,1,745.2,315q-6.42-1.61-9.75-4.73A10,10,0,0,1,732.1,302.68Zm14,.36a6.53,6.53,0,0,0,3.61,6,20.15,20.15,0,0,0,17.79,0,6.58,6.58,0,0,0,3.59-6,6.5,6.5,0,0,0-3.59-5.92,20.15,20.15,0,0,0-17.79,0A6.52,6.52,0,0,0,746.14,303Z"/><path class="cls-2" d="M842.67,316H829V302.77c0-2.8-.29-4.6-.87-5.42a5.5,5.5,0,0,0-2.82-1.91,14.16,14.16,0,0,0-4.7-.69,19.08,19.08,0,0,0-6.31,1,7.18,7.18,0,0,0-3.84,2.58q-1,1.6-1,5.94V316H795.74V290.13h12.62v3.78q6.74-4.43,17-4.42a39,39,0,0,1,8.25.81,17.17,17.17,0,0,1,5.66,2.09,7.29,7.29,0,0,1,2.67,2.87,11.23,11.23,0,0,1,.75,4.61Z"/><path class="cls-2" d="M856.55,316v-6.81h13.68V316Z"/><path class="cls-2" d="M929.19,297.58l-13.44,1.16a5,5,0,0,0-3.09-3,16.34,16.34,0,0,0-6.24-1,15.93,15.93,0,0,0-8.15,1.8c-2,1.2-3,3.19-3,6,0,3.12,1,5.32,3.08,6.61A18.61,18.61,0,0,0,913,310a6.57,6.57,0,0,0,3.5-3.88l13.44,1.15q-2.08,4.65-8,7T906,316.6q-11.32,0-18.06-3.59t-6.73-9.94q0-6.42,6.75-10t18.27-3.58q9.42,0,15,2A14.53,14.53,0,0,1,929.19,297.58Z"/><path class="cls-2" d="M936.34,302.68c0-2.28,1.12-4.49,3.34-6.62a21.91,21.91,0,0,1,9.47-4.89,51.64,51.64,0,0,1,13.67-1.68q11.67,0,19.12,3.82T989.4,303q0,5.89-7.53,9.76t-19,3.87A55.31,55.31,0,0,1,949.44,315q-6.42-1.61-9.76-4.73A10,10,0,0,1,936.34,302.68Zm14,.36a6.54,6.54,0,0,0,3.61,6,20.17,20.17,0,0,0,17.8,0,6.58,6.58,0,0,0,3.59-6,6.5,6.5,0,0,0-3.59-5.92,20.17,20.17,0,0,0-17.8,0A6.54,6.54,0,0,0,950.37,303Z"/><path class="cls-2" d="M999.15,290.13h12.62v3.51a30.17,30.17,0,0,1,16.1-4.15,31.74,31.74,0,0,1,8.61,1,14.82,14.82,0,0,1,6,3.11,26.76,26.76,0,0,1,7.33-3.11,32.86,32.86,0,0,1,8.39-1,34.09,34.09,0,0,1,9.61,1.16,12.12,12.12,0,0,1,5.88,3.39q1.41,1.66,1.41,5.37V316h-13.68V301.18q0-3.84-1.41-5c-1.26-1-3.19-1.46-5.81-1.46a16.35,16.35,0,0,0-5.37.88,6.85,6.85,0,0,0-3.63,2.57,10,10,0,0,0-1.11,5.34V316H1030.4V301.79c0-2.51-.24-4.14-.73-4.87a4.33,4.33,0,0,0-2.27-1.63,12.84,12.84,0,0,0-4.15-.54,17.77,17.77,0,0,0-5.7.86,6.79,6.79,0,0,0-3.62,2.46q-1.09,1.6-1.1,5.33V316H999.15Z"/></g></g></svg>